<svg xmlns="http://www.w3.org/2000/svg" viewBox="0 -384 384 384" data-icon="ion-ion-social-instagram" preserveAspectRatio="xMidYMid" style="overflow: hidden;" fill="white"><path d="M112 -192c0 -53 27 -80 80 -80s80 27 80 80s-27 80 -80 80s-80 -27 -80 -80zM113 -271c-14 14 -23 29 -28 47h-85v-112c0 -13 4 -25 14 -34s22 -14 35 -14h288c13 -0 24 5 33 14s14 21 14 34v112h-84c-5 -18 -14 -33 -28 -47c-22 -22 -49 -33 -80 -33s-57 11 -79 33zM352 -300v-39c0 -4 -2 -7 -4 -9s-5 -4 -9 -4h-38c-4 -0 -7 2 -9 4s-4 5 -4 9v39c0 4 2 7 4 9s5 3 9 3h38c4 -0 7 -1 9 -3s4 -5 4 -9zM272 -113c22 -22 32 -48 32 -79h80v144c0 13 -5 24 -14 34s-20 14 -33 14h-288c-13 -0 -24 -4 -34 -14s-15 -21 -15 -34v-144h81c0 31 10 57 32 79s48 33 79 33s58 -11 80 -33z"></path></svg>