<svg xmlns="http://www.w3.org/2000/svg" viewBox="0 -811 1000 923" data-icon="ico-brand-linkedin" preserveAspectRatio="xMidYMid" style="overflow: hidden;" fill="white"><path d="M753.2 -525.8C639.4 -525.8 588.5 -465.5 560 -423v2.1h-1.4c0.5 -0.6 1 -1.4 1.4 -2.1v-88.2H345.7c2.7 58.4 0 622.8 0 622.8H560v-347.8c0 -18.7 1.4 -37.1 7.1 -50.5 15.5 -37.1 50.9 -75.8 110 -75.8 77.6 -0 108.7 57.2 108.7 140.9v333.2H1000v-357.1c0 -191.3 -105.8 -280.3 -246.8 -280.3zm-632 -285.7C48 -811.5 0 -764.9 0 -703.8 0 -644.1 46.5 -596.2 118.4 -596.2h1.4c74.8 -0 121.3 -47.9 121.3 -107.6 -1.4 -61.1 -46.6 -107.7 -119.9 -107.7zM12.6 -511.1H227v622.8H12.6v-622.8z"></path></svg>