<?xml version="1.0" encoding="UTF-8"?><svg id="a" xmlns="http://www.w3.org/2000/svg" viewBox="0 0 491.47 817.32"><defs><style>.b{fill:#fff;}</style></defs><path class="b" d="M490.42,223.12c-1.45,.3-1.36,1.6-1.66,2.54-2.12,6.78-5.18,13.12-8.83,19.18-5.85,9.69-13.8,16.98-24.6,20.87-1.25,.45-2.56,.75-3.85,1.12,.08-.64,.3-.95,.58-1.17,7.14-5.57,12.07-12.76,15.49-21.08,2.17-5.28,3.65-10.75,4.85-16.31,1.58-7.29,2.76-14.64,2.76-22.13,0-.84,.27-1.81-1.18-2.38-.33,.6-.77,1.18-1.01,1.85-3.9,10.76-10.28,20.02-17.48,28.75-4.99,6.05-10.96,10.92-18.45,13.65-2.17,.79-4.37,1.47-6.77,1.57,.08-.24,.08-.38,.14-.42,.83-.52,1.65-1.05,2.49-1.54,5.44-3.19,10.5-6.84,14.67-11.65,4.69-5.41,7.93-11.63,10.45-18.27,3-7.93,4.75-16.19,5.69-24.56,.72-6.41,.78-12.9,1.09-19.36,.05-1.03,.14-2.17-.96-2.85-1.18,.97-1.23,.96-1.53,2.29-1.5,6.58-4.41,12.55-7.82,18.3-4,6.74-9.02,12.57-15.54,17.01-.46,.32-1,.53-2.08,1.09,.64-.8,.81-1.04,1.01-1.24,8.85-8.81,13.8-19.57,16.1-31.73,1.78-9.42,1.85-18.91,1.53-28.42-.07-2.15-.31-4.3-.55-6.44-.11-1.06-.28-2.19-2.03-2.04-.25,.81-.51,1.63-.77,2.45-1.25,3.91-2.33,7.89-3.79,11.72-2.25,5.87-5.05,11.49-8.91,16.5-2.24,2.92-4.65,5.7-7.88,7.66,.2-.66,.52-1.23,.89-1.76,6.11-8.69,8.38-18.4,7.93-28.92-.33-7.6-1.97-14.94-3.89-22.24-1.47-5.6-3.37-11.05-5.84-16.3-.39-.84-.6-1.94-2.25-1.95-.1,.67-.31,1.38-.28,2.09,.09,2.05,.34,4.1,.41,6.16,.26,8.33-.98,16.42-4.25,24.12-2.04,4.8-4.93,9.04-8.82,12.59,1.07-2.6,2.31-5.1,3.52-7.61,4.88-10.17,6.17-20.74,3.69-31.78-2.38-10.58-7.07-20.1-13.1-29.02-.22-.32-.42-.72-.73-.91-.43-.26-.96-.35-1.42-.51-.17,.4-.34,.58-.32,.75,.07,.58,.15,1.16,.33,1.71,2.17,6.79,3.07,13.76,2.74,20.88-.2,4.32-.74,8.6-2.3,12.67-.21,.55-.58,1.03-1.19,2.07-.06-1.13-.1-1.61-.12-2.09-.54-15.14-5.04-28.86-14.65-40.74-3.27-4.04-6.55-8.07-9.81-12.11-6.57-8.13-12.33-16.72-15.41-26.85-.18-.59-.69-1.07-1.03-1.56-1.53,.44-1.56,1.7-1.83,2.65-1.2,4.18-1.52,8.47-1.39,12.81,.04,1.21,0,2.43,0,4.11-2.01-1.72-3.58-3.17-5.26-4.46-7.38-5.67-14.84-11.24-22.19-16.97-6.19-4.82-12.23-9.83-17-16.17-.38-.51-.97-.87-1.45-1.28-1.26,.8-.96,1.8-.69,2.73,.87,3.01,1.79,6,2.71,8.99,.24,.79,.54,1.56,.81,2.35-5.87-4-11.46-8.14-16.72-12.68-5.3-4.58-10.25-9.55-15.36-14.35-.17,.18-.37,.3-.4,.46-.09,.48-.17,.97-.14,1.45,.28,4.33,.95,8.55,3.15,12.42,4.34,7.65,9.65,14.57,16.03,20.57,5.71,5.37,11.74,10.4,17.67,15.52,6.94,5.99,13.24,12.53,18.01,20.43,.69,1.14,1.28,2.34,1.92,3.51-.76-.02-1.2-.32-1.62-.65-4.81-3.72-9.57-7.49-14.42-11.15-13.7-10.35-27.14-21.01-39-33.49-9.29-9.79-17.49-20.36-22.62-33.17h-1.5c0,1.67-.12,3.23,.02,4.76,.93,10.53,4.24,20.28,9.74,29.3,5.47,8.97,11.51,17.56,18.05,25.75,7.4,9.27,15.15,18.25,22.7,27.4,10.3,12.48,20.41,25.1,29.26,38.67,9.19,14.09,16.05,29.14,19.24,45.76,1.54,8.01,2.72,16.08,2.56,24.22-.22,10.83-2.3,21.39-5.53,31.75-3.86,12.36-10.54,22.89-19.84,31.83-7.66,7.37-15.96,13.9-25,19.49-5.75,3.55-11.62,6.91-17.38,10.44-8.46,5.17-16.61,10.78-23.88,17.57-.86,.8-1.72,1.6-3.07,2.85,.32-1.16,.44-1.62,.58-2.08,2.63-8.64,6.17-16.92,9.83-25.16,2.66-6,5.29-12.01,6.99-18.38,2.17-8.1,2.79-16.2,.15-24.33-.08-.25-.01-.54-.01-1.02,.97,.59,1.77,1.13,2.61,1.6,2.83,1.56,5.6,3.24,8.52,4.61,7.46,3.51,15.28,4.79,23.45,3.17,7.57-1.5,13.54-5.46,17.78-11.94,.14-.22,.12-.54,.19-.9-.32-.22-.63-.43-1-.69-8.94,5.18-18.27,4.65-27.73,1.99,1.94-.24,3.89-.12,5.82-.26,4.71-.36,9.36-1.13,13.5-3.56,6-3.53,8.94-8.87,8.91-15.82,0-1.35-.13-2.72-1.63-3.82-1.46,2-2.71,4.08-4.32,5.82-1.65,1.78-3.51,3.46-5.55,4.76-2.04,1.3-4.33,2.32-6.65,3.01-2.41,.73-4.97,1.13-7.48,1.29-2.42,.15-4.89-.05-7.31-.35-2.38-.3-4.71-.92-7.07-1.4,.73-.69,1.45-.9,2.18-1.02,5.14-.87,8.77-3.68,10.84-8.46,1.58-3.64,1.72-7.46,.93-11.25-.31-1.46-1.3-2.81-2.15-4.1-.23-.34-1.08-.27-1.87-.43,.85,4.81-.87,8.29-4.19,11-1.19,.97-2.64,1.74-4.09,2.24-3.84,1.32-7.83,1.75-11.87,1.31-5.35-.58-10.59-1.73-15.79-3.18-5.28-1.48-10.62-2.77-16.17-2.47-6.85,.38-13.06,2.33-17.92,7.48-15.69,1.24-28.17,5.42-32.56,10.76,.7-.05,1.27-.06,1.82-.14,.58-.08,1.14-.33,1.71-.36,11.57-.52,22.17,2.03,31.11,9.83,2.88,2.51,5.69,5.11,8.57,7.62,2.69,2.34,5.64,4.26,9.17,5.07,1.48,.34,3.01,.4,4.72,.62-.38,.88-.61,1.63-1,2.28-3.21,5.32-6.87,10.29-11.94,14.01-3.95,2.9-7.94,5.74-12.02,8.45-4.49,2.98-9.16,5.69-13.64,8.68-6.44,4.3-12.78,8.77-17.84,14.75-.16,.19-.5,.24-.89,.41-8.02-6.12-16.72-11.23-25.44-16.31-9.94-5.78-19.34-12.3-27.91-20-6.45-5.79-12.4-12.04-16.7-19.63-8.66-15.28-12.31-31.91-12.47-49.32-.1-11.44,2.02-22.62,5.21-33.58,3.84-13.2,10.17-25.22,17.77-36.61,9.87-14.78,21.02-28.59,32.52-42.11,9.66-11.36,19.28-22.72,27.77-35,4.52-6.53,9.08-13.02,12.42-20.28,3.49-7.57,5.43-15.51,5.85-23.82,.05-1.03,.41-2.16-.99-3.08-.39,.51-.86,.95-1.12,1.49-1.1,2.3-1.99,4.7-3.21,6.92-4.22,7.68-9.45,14.65-15.25,21.21-8.73,9.88-18.63,18.52-28.9,26.72-9.42,7.52-19.03,14.81-28.56,22.19-.2,.15-.48,.21-1.02,.43,.32-1.49,1.03-2.52,1.67-3.57,4.22-6.92,9.49-12.97,15.57-18.29,5.46-4.78,11.1-9.35,16.5-14.19,7.79-6.97,14.45-14.91,19.64-24.04,2.29-4.03,3.16-8.41,3.11-12.99,0-.5-.26-.99-.37-1.39-3.51,3.36-6.83,6.69-10.31,9.83-3.41,3.09-6.94,6.06-10.51,8.96-3.57,2.9-7.22,5.7-11.57,8.69,.76-2.07,1.31-3.43,1.75-4.82,.71-2.24,1.42-4.48,1.99-6.76,.24-.96,.6-2.12-.83-3.09-.64,.73-1.25,1.44-1.88,2.14-1.84,2.04-3.5,4.27-5.55,6.06-4.87,4.25-9.8,8.44-14.91,12.39-7.67,5.94-15.69,11.43-22.85,18.02-.16,.14-.48,.11-.75,.17,.74-9.71-.27-16.77-2.75-19.29-1.15,1.12-1.18,1.11-1.46,2.01-2.38,7.68-6.26,14.58-11.11,20.93-4.46,5.84-9.11,11.54-13.74,17.24-8.07,9.93-12.71,21.3-14.26,33.95-.36,2.97-.48,5.97-.76,9.54-1.41-2.7-2.09-5.09-2.54-7.56-1.71-9.43-1.1-18.73,1.69-27.9,.27-.88,.44-1.79,.67-2.72-1.79-.69-2.2,.53-2.76,1.34-5.19,7.57-9.31,15.66-11.88,24.49-2.39,8.21-3.21,16.53-1.31,24.98,1.24,5.49,3.54,10.57,6.06,15.57,.47,.92,.93,1.85,1.4,2.77-.87-.3-1.45-.77-1.94-1.33-3.07-3.49-5.55-7.35-7.25-11.68-3.38-8.64-4.59-17.59-3.74-26.83,.1-1.07,.23-2.15,.23-3.22,0-.51-.3-1.02-.48-1.58-1.53,.95-1.55,.94-2.18,2.36-5.25,11.73-8.47,24.01-9.53,36.8-.9,10.88,1.42,21.05,7.73,30.14,.3,.43,.51,.91,.76,1.37-.79-.03-1.25-.32-1.66-.67-3.23-2.77-5.92-6.01-8.16-9.6-4.86-7.79-8.39-16.15-10.53-25.09-.22-.92-.16-1.97-1.34-2.51-1.51,.41-1.3,1.77-1.42,2.84-1.18,11.37-1.11,22.72,.94,33.98,2.12,11.62,6.68,22.1,15,30.72,.44,.46,.8,.99,1.2,1.48-.73,.07-1.21-.16-1.65-.46-5.64-3.92-10.16-8.92-13.8-14.7-4.04-6.41-7.48-13.1-9.1-20.59-.17-.8-.23-1.83-1.43-1.91-1.18,.56-.92,1.63-.95,2.57-.36,12.93,1.29,25.62,4.72,38.08,4.48,16.26,13.44,29.04,28.71,36.91,.41,.21,.79,.5,1.43,.91-.59,.09-.87,.22-1.1,.16-1.33-.29-2.68-.56-3.99-.93-7.29-2.08-13.25-6.31-18.25-11.84-8.27-9.15-15.2-19.2-19.58-30.84-.29-.77-.71-1.49-1.07-2.24-1.76,.61-1.38,1.81-1.35,2.82,.36,11.34,2.44,22.4,5.9,33.17,3.37,10.5,8.91,19.59,17.81,26.38,.1,.08,.09,.31,.16,.57-.43-.02-.83,.03-1.18-.08-1.4-.44-2.81-.86-4.17-1.4-9.3-3.76-16.53-10.05-21.96-18.4-4.24-6.51-7.61-13.47-9.99-20.88-.29-.91-.65-1.8-.97-2.69H.29c-.11,.72-.31,1.38-.29,2.04,.2,10.28,1.96,20.3,5.75,29.86,5.05,12.76,13.84,21.91,26.81,26.8,5.61,2.11,11.45,3.3,17.34,4.27,2.48,.41,4.97,.77,8.01,1.23-3.45,1.76-6.63,2.42-9.8,2.72-9.71,.91-19.14-.27-28.06-4.5-5.86-2.77-11.65-5.63-16.54-9.99-.66-.59-1.36-1.18-2.45-.32,.17,.59,.24,1.28,.55,1.83,.92,1.62,1.82,3.26,2.94,4.74,8.06,10.72,18.22,18.84,30.52,24.2,5.32,2.31,10.91,3.79,16.72,4.18,9,.6,17.76-.74,26.3-3.6,.56-.19,1.16-.27,2.05-.47-.39,.57-.53,.84-.72,1.04-16.1,16.31-35.71,23.45-58.45,22.34-1.94-.09-3.85-.65-5.78-.95-.85-.13-1.59-.01-1.6,1.35,.56,.34,1.17,.82,1.86,1.11,2.35,.97,4.68,2.01,7.09,2.79,7.29,2.36,14.8,3.54,22.42,4.29,9.2,.91,18.19,.2,26.96-2.65,7.35-2.38,13.87-6.33,19.96-11.04,.85-.66,1.6-1.58,2.61-1.87-2.33,5.61-4.58,11.13-6.92,16.6-1.63,3.81-3.78,7.29-6.74,10.25-4.78,4.78-10.35,8.35-16.51,11.05-6.84,2.99-13.93,5.15-21.33,6.23-.95,.14-2.02,.1-2.3,1.41,.4,1.29,1.61,1.34,2.6,1.51,4.14,.72,8.28,1.44,12.44,1.98,8.85,1.14,17.6,.48,26.14-2.12,8.82-2.69,16.52-7.14,21.99-14.85,.16-.23,.46-.36,.87-.68-.18,1.2-.3,2.07-.45,2.93-.17,.96-.38,1.92-.57,2.88-2.74,14.13-9.9,25.42-21.62,33.8-3.91,2.8-7.85,5.51-12.31,7.4-.79,.34-2.05,.49-1.61,2.28,7.97,.13,15.33-2.49,22.49-5.51,18.67-7.88,33.74-19.73,41.65-39.22,.19,.87,.29,1.63,.18,2.35-1.64,10.72-5.78,20.3-13.05,28.44-.78,.88-1.7,1.64-2.4,2.58-.32,.43-.24,1.14-.43,2.29,3.85-1.04,6.78-2.74,9.59-4.63,2.84-1.91,5.67-3.88,8.3-6.06,2.55-2.12,5.05-4.39,7.2-6.91,2.21-2.6,4.13-5.48,5.88-8.41,1.72-2.88,3.08-5.97,4.8-9.37,.74,10.84,3.25,21.24,6.16,25.74,.32-.07,.67-.15,.95-.21,.27-5.03,.4-9.91,.83-14.77,.62-6.94,1.67-13.83,4.11-20.4,5.81-15.62,16.51-26.37,32.2-32.08,1.24-.45,2.56-.67,4.21-1.09-.1,1.56-.13,2.72-.26,3.86-.42,3.74-.13,7.45,.56,11.12,2.44,12.93,8.59,23.93,17.91,33.08,4.18,4.11,8.77,7.85,13.42,11.43,7.9,6.08,14.31,13.29,18.83,22.23,3.05,6.05,3.83,12.43,2.64,18.88-2.82,15.29-11.29,26.91-24.23,35.29-2.25,1.45-4.95,2.35-7.55,3.08-3.88,1.1-7.91,1.29-11.94,1.08-3.81-.19-7.63-.3-11.43-.61-6.79-.56-13.5-.03-20.14,1.31-10.6,2.14-20.17,6.61-27.95,14.12-16.84,16.25-23.66,36.06-19.86,59.28,1.37,8.36,4.63,15.96,9.94,22.62,.6,.76,1.08,1.73,2.29,2.08-.37-1.94-.86-3.64-.99-5.37-.43-5.91,.11-11.73,1.76-17.46,2.83-9.83,8.34-17.41,17.83-21.76,1.51-.69,2.97-1.51,4.44-2.29,6.39-3.37,12.13-7.6,16.87-13.07,2.82-3.26,5.54-6.62,8.15-10.05,4.52-5.93,10.19-10.28,17.18-12.84,4.4-1.61,8.85-3.13,13.31-4.57,10.88-3.49,20.19-9.43,27.87-17.89,5.47-6.03,9.69-12.8,11.7-20.8,.17-.7,.37-1.39,.55-2.08,.36,.63,.45,1.2,.42,1.77-.08,1.57-.1,3.14-.33,4.69-2.07,13.7-8.21,25.35-18.54,34.49-7.55,6.68-15.63,12.77-23.56,19.01-8.78,6.91-17.82,13.52-25.57,21.63-18.6,19.47-28.15,42.63-27.83,69.64,.16,13.43,5.07,24.83,15.62,33.49,2.11,1.74,4.27,3.42,6.5,5.21-.82,1.17-1.6,2.29-2.37,3.41-7.38,10.67-12.96,22.11-15.04,35.07-1.49,9.3-1.8,18.54,1,27.65,1.26,4.1,2.18,8.33,4.39,12.1,7.06,12.04,15.95,22.54,26.42,31.72,7.38,6.46,14.86,12.81,21.25,20.3,3.95,4.63,7.79,9.38,10.51,14.85,2.35,4.72,4.26,9.67,6.38,14.51,.21,.47,.52,.9,.79,1.35,.33-2.17,.31-4.22,.07-6.24-1.09-9.24-2.1-18.5-3.42-27.71-1.16-8.14-2.41-16.29-4.15-24.32-1.41-6.49-3.65-12.8-5.47-19.21-2.47-8.67-3.41-17.49-2.42-26.47,.67-6.03,1.4-12.06,2.21-18.07,.49-3.64,1.2-7.26,1.84-11.05,.57,.28,.88,.34,1.06,.53,.69,.7,1.36,1.41,2,2.15,5.97,6.95,10.12,14.89,12.62,23.68,3.2,11.28,4.2,22.92,5.26,34.53,.73,8.01,.69,16.05,.5,24.1-.19,8.05-.8,16.05-1.98,24.01-1.02,6.88-2.01,13.77-2.99,20.65-.19,1.35-.35,2.72,.05,4.48,1.38-4.27,3.01-8,3.74-11.9,1.28-6.79,4.12-12.85,7.54-18.71,4.05-6.94,8.18-13.83,12.36-20.7,8.81-14.48,15.76-29.77,20.06-46.2,3.68-14.04,4.6-28.19,1.46-42.48-2.46-11.22-7.36-21.06-16.12-28.71-4.76-4.15-9.92-7.77-16.17-9.23-5.24-1.22-10.61-1.65-16.01-1.28-1.02,.07-2.14,.38-3.02-.8,3.08-5.85,6.99-11,11.8-15.54,.54,.42,.87,.63,1.15,.9,8.5,8.17,18.8,12.89,30.07,15.82,4.73,1.23,9.45,2.53,14.05,4.17,11.16,3.97,17.92,11.87,20.29,23.52,.98,4.85,1.12,9.72,.73,14.63-.06,.73,0,1.46,0,2.79,.53-.86,.83-1.21,.99-1.62,.76-2.01,1.57-4.02,2.2-6.07,2.29-7.45,3.12-15.13,3.72-22.87,.77-10.01,.73-19.99-.76-29.92-1.13-7.51-3.14-14.75-7.05-21.35-3.62-6.11-8.61-10.62-15.39-12.99-3.46-1.21-7.04-1.61-10.68-1.62-1.65,0-3.3,0-4.95,0l-.58-.95c.45-.22,1.01-.33,1.33-.66,3.54-3.67,7.14-7.28,10.54-11.08,7.68-8.59,14.16-17.99,18.81-28.6,5.85-13.32,7.54-27.08,4.58-41.37-2.21-10.67-6.43-20.53-11.83-29.93-4.32-7.51-9.72-14.24-15.14-20.95-.49-.61-.9-1.29-1.34-1.94,.58-.08,.85,.02,1.06,.18,5.76,4.41,11.52,8.81,17.26,13.25,11.1,8.58,21.99,17.38,31.49,27.79,9.73,10.64,17.11,22.62,21.55,36.38,1.21,3.76,1.98,7.58,1.77,11.55-.27,5.12-2.11,9.7-4.63,14.1-4.18,7.31-8.45,14.59-12.3,22.07-6.65,12.94-8.66,26.7-6.46,41.1,.95,6.22,2.65,12.24,4.46,18.25,1.66,5.53,3.51,11.03,4.8,16.65,3.66,15.97-.78,29.2-13.88,39.33-2.56,1.98-5.14,3.93-7.59,6.04-2.02,1.74-4.06,3.49-5.59,5.77,.72-.09,1.29-.38,1.84-.69,4.6-2.62,9.19-5.23,13.78-7.86,1.78-1.02,3.6-1.99,5.3-3.14,12.8-8.65,23.55-19.47,32.92-31.67,11.04-14.37,17.65-30.62,20.22-48.56,1.15-7.99,1.34-16.01,1.24-24.05-.12-9.93-1.31-19.74-3.56-29.41-3.64-15.59-9.89-30.12-17.82-43.96-6.38-11.13-14.31-21.09-23.53-29.97-8.84-8.51-18.61-15.91-28.52-23.13-14.19-10.33-28.18-20.89-40.43-33.56-6.16-6.38-10.66-13.76-14.09-21.85-.19-.45-.36-.91-.49-1.38-2.1-7.78-3.52-15.69-3.97-23.73-.28-5.17-.05-10.37-.05-15.57,3.74-4.43,8.5-7.25,13.77-9.3,6.37-2.48,8.02-2.55,14.36,0,17.71,7.13,28.47,20.24,32.78,38.7,1.95,8.33,2.75,16.82,2.61,25.39-.01,.91-.47,1.98,.57,2.75,1.37,.14,1.47-1,1.8-1.86,2.79-7.37,4.82-14.91,4.81-22.88,0-.22,.15-.44,.35-.99,.87,1.92,1.59,3.51,2.33,5.09,3.58,7.67,8.52,14.32,15.21,19.55,3.32,2.59,6.79,4.99,10.3,7.31,1.79,1.18,3.8,2.02,5.74,2.95,.84,.4,1.73,.53,2.15-.68-2.68-3.46-5.49-6.83-8-10.4-2.49-3.54-4.24-7.49-5.57-11.62-1.35-4.19-2.36-8.44-2.7-12.91,.24,.09,.38,.1,.41,.16,.42,.88,.85,1.75,1.24,2.65,3.22,7.36,7.59,13.96,13.39,19.52,11.9,11.4,26.11,18.52,42.08,22.22,2.4,.56,4.92,1.24,7.76,.42-.34-.6-.49-1.2-.86-1.46-.72-.49-1.58-.77-2.36-1.17-8.56-4.36-16.21-9.91-22.26-17.47-6.56-8.21-9.73-17.78-11.13-28.05-.02-.12,.17-.27,.22-.35,1.95,2.07,3.67,4.22,5.72,6,8.88,7.74,19.59,10.87,31.07,11.5,4.86,.27,9.79-.14,14.66-.58,3.39-.31,6.74-1.14,10.09-1.85,.86-.18,2.04-.27,2.14-1.62-.4-.99-1.31-1.02-2.17-1.19-2.97-.58-5.98-1.04-8.89-1.84-9.52-2.6-18.51-6.3-26.19-12.73-4.63-3.87-7.93-8.59-10.17-14.17-1.86-4.63-3.96-9.16-5.95-13.74-.18-.41-.34-.82-.79-1.9,1.13,.76,1.65,1.12,2.17,1.47,3.31,2.26,6.52,4.71,9.96,6.76,9.03,5.39,18.92,7.79,29.4,7.93,7.68,.1,15.23-.95,22.72-2.48,5.09-1.04,10.05-2.56,14.76-4.78,.91-.43,2.1-.61,2.3-1.88-.67-1.06-1.5-.71-2.39-.61-3.2,.38-6.41,.77-9.62,.92-5.9,.27-11.73-.55-17.46-1.9-12.43-2.93-23.55-8.41-32.91-17.24-1.54-1.45-3.08-2.89-4.62-4.34,5.58,1.51,11.01,2.94,16.65,3.65,8.4,1.05,16.61,.53,24.62-2.24,13.04-4.5,23.68-12.46,32.47-22.96,2-2.39,3.56-5.14,5.25-7.78,.31-.49,.27-1.2,.39-1.76-1.42-.7-2.08,.23-2.77,.83-4.12,3.56-8.89,6.03-13.7,8.49-9.42,4.82-19.39,6.64-29.87,5.7-3.43-.31-6.81-.98-10.34-2.73,1.4-.27,2.36-.46,3.32-.64,5.38-1.01,10.83-1.72,16.11-3.08,15.92-4.08,26.94-13.85,32.89-29.22,2.7-6.98,4.21-14.27,5.03-21.69,.28-2.53,.4-5.08,.55-7.63,.05-.87,.08-1.8-1.03-2.11Zm-12.99,32.19c-1.33,3.4-3.43,6.28-5.78,8.98-6.97,8.01-16.01,12.39-26.16,14.71-5.84,1.34-11.82,1.66-17.78,1.68-4.19,.01-8.38-.71-12.58-.86-5.85-.21-11.68-1.23-17.58-.28-3.08,.5-6.24,.43-9.36,.69-3.5,.3-7,.7-10.5,1.03-.96,.09-1.94,.1-2.98-.3,9.01-1.73,17.96-3.8,27.04-5.06,4.98-.69,10.18-.27,15.24,.08,8.31,.58,16.61,1.43,24.93,.72,9.31-.79,17.59-4.37,24.89-10.21,3.47-2.77,6.5-5.95,9.21-9.45,.46-.59,.94-1.16,1.41-1.74Zm-6.42,3.36c.74-.62,1.44-1.28,2.31-1.77-1.69,2.59-3.86,4.75-6.16,6.75-8.36,7.27-18.06,11.14-29.19,11.36-6.96,.13-13.88-.5-20.81-1.03-5.94-.45-11.94-.71-17.89,.25-.95,.15-1.93,.11-2.9,.16v-.64c4.79-.95,9.56-1.91,14.34-2.84,10.55-2.06,21.23-2.28,31.9-1.67,11.13,.64,20.19-3.68,28.4-10.58Zm-18.51,4.12c-1.25,1.08-2.66,1.99-4.05,2.89-1.93,1.24-4.02,1.88-6.38,1.66-1.8-.17-3.64-.03-5.46-.03-.03-.15-.05-.29-.08-.44,.41-.2,.79-.46,1.22-.6,12.42-4.06,21.09-12.34,26.8-23.9,1.34-2.71,2.43-5.54,3.64-8.32,.38-.88,.74-1.76,1.26-2.57-2.67,12.04-7.37,23-16.94,31.31Zm17.04-39.88c-.11,.56-.18,1.14-.34,1.69-1.89,6.71-4.33,13.2-7.7,19.33-6.7,12.2-17.06,19.33-30.55,22.22-4.61,.98-9.29,1.23-13.93,1.85-7.46,.99-14.86,2.35-22.14,4.28-5,1.33-9.98,2.74-14.98,4.11-.45,.12-.92,.22-1.37,.32l-.25-.54c1.32-.6,2.62-1.23,3.96-1.78,6.27-2.57,12.84-4.07,19.49-5.24,8.47-1.49,16.88-3.18,25.11-5.77,13.79-4.35,24.74-12.5,32.9-24.35,2.99-4.34,5.47-9.04,8.16-13.59,.49-.84,.89-1.73,1.64-2.54Zm-17.64,18.04c4.62-4.3,8.47-9.23,12.02-14.43,.59-.86,1.19-1.7,1.79-2.55l.4,.21c-.14,.42-.24,.87-.44,1.26-4.44,8.7-9.84,16.69-17.05,23.39-6.83,6.34-14.89,10.36-23.68,13.13-7.57,2.39-15.34,3.88-23.14,5.24-6.85,1.19-13.59,2.75-20.08,5.29-.26,.1-.56,.09-.87,.13,.8-1.78,.74-1.9,2.51-2.74,5.92-2.81,11.82-5.67,17.85-8.25,7.28-3.12,14.66-6,22.02-8.93,.88-.35,1.88-.51,2.84-.56,10.02-.49,18.54-4.4,25.84-11.18Zm10.05-51.58c0,.88,.1,1.78-.02,2.64-1.2,8.55-2.82,16.99-5.79,25.14-4.58,12.58-12.49,22.25-24.21,28.83-8.05,4.52-16.54,8-25.11,11.37-7.19,2.83-14.28,5.91-21.81,9.05,2.11-4.04,4.02-7.79,8.28-9.72,4.45-2.02,8.76-4.36,13.2-6.4,7.74-3.57,15.44-7.2,22.64-11.8,12.45-7.96,21.63-18.62,26.89-32.49,1.77-4.66,3.25-9.44,4.85-14.17,.28-.82,.49-1.65,1.08-2.45Zm-4.55,3.84c.4-.82,.85-1.62,1.28-2.43-4.61,20.25-14.43,36.91-32.9,47.48-4.49,2.57-9.08,5.01-13.73,7.27-6.85,3.33-13.8,6.45-20.61,9.61,.19-2.62,2.05-6.4,3.91-8.08,5.2-4.73,11.35-7.98,17.4-11.4,4.17-2.36,8.4-4.63,12.51-7.1,14.26-8.54,24.89-20.42,32.14-35.35Zm-8.35,9.13c.2-.21,.44-.38,1.22-1.07-.55,1.11-.75,1.66-1.07,2.13-6.67,9.94-15.32,17.78-25.57,23.87-3.45,2.05-6.99,3.96-10.48,5.94-3.07,1.74-6.17,3.42-9.17,5.26-2.91,1.79-5.71,3.75-8.77,5.77-.12-1.86,.8-2.94,1.83-4.03,4.19-4.44,8.84-8.32,13.89-11.75,6.24-4.24,12.42-8.57,18.63-12.85,.56-.39,1.14-.79,1.78-1.02,6.99-2.52,12.71-6.86,17.71-12.25Zm4.42-45.75l.4,.03c-.25,4.24-.36,8.49-.79,12.71-.66,6.45-2.06,12.75-4.36,18.84-3.75,9.91-10.1,17.88-18.4,24.3-4.57,3.53-9.34,6.81-14.11,10.08-5.42,3.71-10.97,7.22-15.85,11.66-1.08,.98-2.17,1.96-3.3,2.98-.55-1.24,.24-1.95,.81-2.7,5.04-6.7,10.96-12.51,17.58-17.65,4.64-3.6,9.19-7.35,13.54-11.29,10.78-9.75,17.66-21.87,21.28-35.89,1.12-4.34,2.13-8.71,3.18-13.07Zm-3.81,3.77c.17-.46,.34-.92,.54-1.36,.07-.17,.23-.3,.78-1.01-1.18,6.38-2.72,11.93-4.53,17.41-4.18,12.64-11.77,22.95-21.79,31.53-4.46,3.82-9.16,7.37-13.72,11.08-4.04,3.28-7.79,6.87-11.09,10.91-.27,.33-.62,.6-1.06,.79,2.72-6.99,6.18-13.54,11.36-18.98,2.83-2.97,5.82-5.86,9.09-8.33,14.46-10.93,24.18-25.21,30.43-42.04Zm-17.47,19.96c4.04-2.67,7.18-6.33,9.97-10.27,.56-.79,1.12-1.59,2.03-2.26-.23,.62-.4,1.28-.69,1.87-5.03,10.2-11.45,19.36-20.2,26.75-4.61,3.89-9.23,7.77-13.85,11.65l-.43-.41c3.11-4.38,6.21-8.77,9.34-13.13,.8-1.11,1.74-2.12,2.53-3.24,3.11-4.33,6.81-8,11.29-10.95Zm2.37-46.99c-.13-2.9-.41-5.8-.62-8.69l.4-.09c.67,2.73,1.39,5.45,2,8.19,1.35,6.03,2.28,12.11,2.16,18.34-.16,8.34-2.19,16.12-6.96,22.99-3.35,4.82-6.9,9.52-10.64,14.05-8.43,10.17-15.54,21.14-20.76,33.3-.3,.7-.72,1.35-1.22,2.27-.25-5.52,.77-10.43,2.96-15.18,2.65-5.73,5.96-11.02,9.65-16.1,3.4-4.68,6.91-9.27,10.25-13.98,5.08-7.17,9.04-14.87,11.14-23.48,1.73-7.12,1.97-14.34,1.65-21.61Zm-5.18,7.47c1.31-5.04,1.9-10.18,2.34-15.37,1,5.15,1.06,10.36,1,15.58-.18,13.94-5.13,26.17-13.24,37.29-3.11,4.27-6.28,8.51-9.41,12.77-3.71,5.06-7.12,10.31-9.75,16.04-.11,.25-.31,.46-.7,1.03-.57-5.01-.71-9.57,1.05-14.09,2.4-6.15,5.46-11.92,9.2-17.34,2.56-3.7,5.2-7.36,7.69-11.11,5.1-7.7,9.47-15.77,11.82-24.8Zm-11.54,11.69c4.48-4.5,7.62-9.91,9.63-15.95,.18-.54,.44-1.04,1.1-1.45-.32,1.6-.58,3.21-.98,4.79-1.88,7.48-5.18,14.35-9.26,20.84-2.71,4.31-5.61,8.5-8.54,12.66-4.01,5.7-7.63,11.61-10.23,18.11-.13,.33-.37,.63-.84,1.42-.61-3.93,.39-7.05,1.24-10.13,1.59-5.78,4.14-11.18,7.23-16.32,3.04-5.05,6.46-9.77,10.65-13.97Zm-3.89-57.79c4.8,9.14,7.96,18.73,8.03,29.16,.04,6.08-1.29,11.91-3.89,17.35-2.9,6.09-6.2,12-9.29,18-3,5.83-6,11.66-8.89,17.55-.88,1.8-1.41,3.78-2.21,5.98-1.85-6.47-.57-12.25,1.69-17.87,1.2-2.99,2.68-5.88,4.19-8.73,3.71-7.02,7.26-14.11,9.34-21.83,2.11-7.82,3.12-15.78,2.43-23.85-.42-4.87-1.3-9.69-1.97-14.54-.07-.48-.12-.95-.2-1.68,.4,.22,.69,.28,.77,.44Zm-5.33,26.63c2.41-4.57,3.16-9.63,3.44-14.75,.08-1.46,.01-2.93,.01-4.4,1.45,5.6,1.62,11.34,1.33,17.12-.57,11.47-4.23,22.02-9.55,32.07-2.97,5.62-6.14,11.15-7.89,17.32-.04,.13-.29,.19-.56,.37-.64-.98-.42-2.03-.35-3.06,.4-5.31,1.74-10.4,3.68-15.35,2.46-6.28,5.04-12.54,6.43-19.16,.75-3.55,1.74-6.92,3.46-10.16Zm-37.64-68.56c3.91,6.72,8.82,12.71,13.73,18.7,2.36,2.88,4.71,5.77,6.97,8.73,8.14,10.6,12.02,22.75,12.85,35.97,.48,7.65-.83,15.03-3.35,22.22-.68,1.94-1.41,3.87-2.1,5.8-1.93,5.43-3.85,10.86-5.72,16.16-.92-1.73-.93-3.83-.47-5.91,.76-3.44,1.54-6.88,2.51-10.26,2.09-7.37,3.83-14.8,4.11-22.49,.38-10.64-2.17-20.64-7.17-29.95-3.15-5.86-6.76-11.47-10.34-17.09-3.79-5.95-7.82-11.75-10.81-18.17-1.27-2.73-2.45-5.5-2.88-8.55,.89,1.61,1.75,3.24,2.67,4.83Zm3.01,12.94c3.21,5.38,6.79,10.53,10.18,15.8,3.81,5.94,7.31,12.04,9.79,18.69,3.81,10.18,4.62,20.62,2.45,31.2-1.39,6.78-3.32,13.46-5.56,20.23-.42-1.27-.67-2.63-1.28-3.8-2.66-5.19-2.2-10.52-1.27-16.02,.91-5.39,1.75-10.86,1.91-16.31,.35-12.2-2.9-23.66-8.55-34.39-2.41-4.57-5.37-8.87-8.22-13.19-2.05-3.12-4.18-6.18-5.28-9.78-.59-1.93-1-3.91-1.65-6.5,2.7,5.13,4.88,9.73,7.47,14.08Zm8.77,24.3c-.05-.27,.03-.56,.07-1.33,7.02,15.79,6.35,31.49,2.54,47.7-.39-.75-.76-1.21-.86-1.72-1.74-8.47-2.4-16.98-1.51-25.64,.65-6.32,.87-12.68-.24-19.01Zm-50.64-54.9c7.26,5.51,14.59,10.93,21.77,16.54,6.9,5.39,13.08,11.52,18.21,18.68,4.83,6.73,8.26,14.04,9.02,22.35,.38,4.18,.42,8.43,.18,12.63-.4,6.84-1.05,13.67-.61,20.55-1.77-2.21-2.35-4.8-2.69-7.39-.38-2.9-.59-5.85-.61-8.78-.04-5.2-.11-10.38-.93-15.54-1.19-7.48-4.07-14.29-8.16-20.61-4.24-6.54-9.45-12.26-15.13-17.55-7.03-6.54-14.1-13.05-21.13-19.59-1.06-.99-2.01-2.1-2.74-3.48,.94,.73,1.88,1.47,2.83,2.19Zm-11.39-8.3c7.08,8.69,15.21,16.32,23.56,23.75,6.15,5.47,12.24,11,17.47,17.39,5.78,7.06,10.33,14.78,12.16,23.82,.76,3.72,1.12,7.55,1.32,11.35,.22,4.29,.05,8.6,.05,12.9-1.15-.35-.85-1.35-.91-2.18-.45-7.16-1.61-14.17-3.86-21.01-4.22-12.84-11.02-24.16-19.8-34.37-6.89-8.01-15.09-14.53-23.61-20.64-4.12-2.95-5.9-7.06-7.13-11.71,.24,.23,.52,.44,.73,.7Zm-26.49-11.98c-.09-.14-.09-.34-.24-.94,1.24,1.09,2.22,1.94,3.18,2.81,8.78,7.99,18.48,14.82,27.94,21.95,7.36,5.54,14.72,11.07,21.08,17.79,12.44,13.17,21.1,28.37,24.86,46.2,.34,1.63,.61,3.27,.82,4.92,.11,.86,.02,1.75,.02,2.63l-.47,.15c-1.86-2.6-3.73-5.2-5.49-7.66,.13-7.92-2.06-15.08-5.38-21.92-4.32-8.9-10.73-16.12-18.43-22.19-6.15-4.85-12.54-9.39-18.78-14.12-10.44-7.91-19.9-16.8-27.6-27.46-.52-.71-1.02-1.44-1.51-2.17Zm69.14,84.55c-1.93-2.14-3.85-4.28-5.9-6.56-1.92-8.84-6.17-16.7-11.86-23.82-3.93-4.92-8.49-9.21-13.3-13.24-6.37-5.34-12.8-10.63-19.16-15.99-1.94-1.64-3.75-3.44-5.59-5.2-.46-.44-.85-.96-1.27-1.44l.29-.32c.27,.18,.57,.33,.8,.56,8.42,8.26,17.98,15.09,27.47,22,6.27,4.56,12.19,9.51,17.09,15.59,5.88,7.31,9.78,15.52,11.52,24.75,.21,1.12,.27,2.28-.09,3.67Zm-35.05-42.91c-5.43-4.79-11.04-9.38-16.46-14.17-2.99-2.65-5.77-5.53-8.65-8.31l.44-.5c2.38,2.28,4.67,4.67,7.17,6.81,7.22,6.16,14.58,12.16,21.81,18.31,8.21,6.98,15.21,14.95,19.67,24.9,.78,1.75,1.4,3.57,1.64,5.63-2.52-2.4-5.04-4.79-6.83-6.49-1.35-3.09-2.11-5.42-3.32-7.49-4.11-7.08-9.34-13.28-15.48-18.69Zm-42.79-21.89c7.9,9.13,16.64,17.44,25.49,25.64,13.38,12.41,26.35,25.18,38.1,39.18,12.14,14.47,21.97,30.27,28.4,48.08,5.26,14.58,8.11,29.62,8.6,45.12,.4,12.5-.81,24.85-3.09,37.12-2.74,14.77-9.78,27.37-19.4,38.68-9.39,11.05-21.18,18.8-34.24,24.78-6.14,2.81-12.4,5.28-18.85,7.31-10.25,3.22-20.43,6.67-30.36,11.18,.43-.39,.83-.82,1.29-1.16,9.04-6.77,18.71-12.52,28.67-17.83,7.69-4.1,15.39-8.18,23.01-12.4,6.09-3.37,12.05-6.96,17.27-11.64,7.74-6.95,13-15.62,17.32-24.93,4.97-10.71,8.69-21.82,10.47-33.54,1.47-9.66,1.57-19.35,.01-28.99-4.83-29.93-17.62-56.08-38-78.47-7.58-8.33-15.47-16.39-23.28-24.52-11.08-11.54-21.53-23.63-30.49-36.9-4.05-6-7.57-12.35-11.31-18.56-.44-.74-.77-1.54-1.42-2.88,4.22,5.27,7.86,10.13,11.83,14.71Zm-6.39,271.05c7.74-6.54,16.2-12.01,24.92-17.12,9.21-5.4,18.41-10.83,26.76-17.55,5.58-4.5,10.94-9.21,15.75-14.54,7.35-8.14,12.5-17.49,15.77-27.92,3.24-10.34,5.51-20.89,5.52-31.73,0-20.21-4.52-39.4-13.8-57.43-6.17-12-13.82-23.03-22.16-33.55-9.67-12.21-19.71-24.13-29.65-36.13-9.45-11.41-18.33-23.23-26.15-35.83-4.5-7.24-7.02-13.79-8.7-22.11,.55,.99,.83,1.4,1.02,1.84,7.92,17.67,18.77,33.44,31.11,48.27,8.48,10.19,17.81,19.56,27.05,29.03,8.56,8.78,16.82,17.83,23.97,27.82,13.04,18.21,21.4,38.46,25.36,60.46,3.36,18.62,.8,36.69-5.97,54.23-3.43,8.88-7.4,17.51-13.07,25.23-4.11,5.59-8.96,10.44-14.9,14.01-7.12,4.29-14.39,8.35-21.67,12.37-10.97,6.06-22.26,11.56-32.55,18.77-5.61,3.93-10.98,8.2-16.46,12.32-.43,.32-.87,.63-1.39,1.01-.44-1.33,.4-2.03,.92-2.79,2.28-3.36,5.25-6.06,8.33-8.66Zm47.28-64.79c3.18-.11,6.34-.81,9.64-1.26-.34,.41-.67,.93-1.11,1.32-4.76,4.16-10.41,6.02-16.63,6.39-6.3,.37-12.2-1.16-17.88-3.76-6.82-3.12-12.93-7.32-18.35-12.49-3.04-2.89-5.9-5.97-8.84-8.96l.51-.47c.92,.51,1.87,1,2.77,1.54,8.23,4.94,16.98,8.85,25.69,12.81,7.64,3.48,15.78,5.16,24.21,4.88Zm-22.32-11.41c6.82,1.45,13.57,1.52,20.27-.75,5.06-1.71,9.28-4.57,12.66-8.69,.48-.58,1.01-1.12,1.96-2.17-.5,6.27-2.97,10.62-7.79,13.58-2.62,1.61-5.56,2.41-8.55,2.93-6.33,1.08-12.67,.88-19-.03-.85-.12-1.68-.5-2.47-.87-10.11-4.71-20-9.87-29.74-15.32-.16-.09-.25-.28-.57-.64,.8,.07,1.43,.06,2.01,.19,5,1.12,9.66,3.15,14.24,5.38,5.46,2.66,11,5.12,16.98,6.39Zm-49.3-16.76c6.04-1.3,11.84,.09,17.65,1.5,4.08,.99,8.13,2.11,12.25,2.89,4.81,.92,9.66,1.32,14.57,.43,6.08-1.1,10.82-3.85,13.15-9.88,.06-.16,.24-.27,.58-.63,.6,4.13,.23,7.88-1.9,11.32-2.04,3.29-5.07,5.08-8.9,5.51-2.75,.31-5.44,.03-8.13-.71-3.58-.99-7.04-2.19-10.4-3.8-4.34-2.08-8.92-3.52-13.69-4.1-2.29-.28-4.64-.05-6.97-.05-5.9-1.16-11.61,.39-17.39,1.38,2.67-2.26,5.88-3.15,9.18-3.86Zm-34.76,11.62l-.1-.44c1.06-.37,2.1-.87,3.2-1.09,4.78-.96,9.56-2.33,14.39-2.6,4.47-.26,8.57-1.74,12.87-2.47,3.87-.66,7.68-1.25,11.63-.4,4.16,.89,7.39,2.94,9.79,6.47,.22,2.34,.25,4.68-.47,6.97-1.37,4.36-5.38,6.72-9.86,5.75-5-1.09-9.6-3.29-14.29-5.25-3.79-1.58-7.57-3.19-11.4-4.65-4.24-1.62-8.65-2.44-13.21-2.29-.85,.03-1.7,0-2.55,0Zm40.77,24.37c-3.9-1.12-6.94-3.5-9.87-6.13-2.77-2.48-5.51-5.01-8.39-7.34-5.91-4.78-12.68-7.64-20.25-8.55-.15-.02-.29-.18-.55-.36,4.69-.44,9.09,.47,13.29,2.08,5.74,2.2,11.36,4.75,17.07,7.03,2.62,1.05,5.31,1.99,8.05,2.68,6.31,1.61,10.69-.7,13.09-6.7,.13-.33,.31-.64,.54-1.11,2.03,6.22,.13,12.98-4.7,16.75-2.44,1.91-5.17,2.53-8.27,1.65ZM222.49,14.49c.28-.61,.59-1.21,.88-1.82l.48,.16c-.71,2.5-1.31,5.04-2.16,7.5-1.99,5.77-4.82,11.13-8.15,16.24-8.95,13.74-18.9,26.7-29.6,39.11-12.8,14.85-25.21,30.02-36.27,46.24-6.76,9.91-12.61,20.33-16.64,31.64-5.65,15.85-8.58,32.21-7.23,49.07,1.01,12.67,3.99,24.94,9.39,36.52,4.51,9.67,11.28,17.61,19.07,24.76,9.22,8.45,19.44,15.49,30.24,21.76,7.8,4.52,15.56,9.1,22.79,14.52,.54,.41,1.07,.83,1.8,1.41-.62,1-1.21,1.94-1.84,2.95-.54-.27-.91-.41-1.22-.62-11.96-8.06-24.87-14.47-37.5-21.36-5.15-2.81-10.25-5.73-15.3-8.73-9.69-5.76-16.86-13.93-22.17-23.79-6.69-12.42-11.57-25.49-13.85-39.45-2.04-12.44-1.47-24.82,1.31-37.08,5.9-26.05,17.58-49.14,35.58-68.93,6.66-7.32,13.48-14.5,20.39-21.58,12.22-12.5,23.69-25.61,33.68-39.97,6.28-9.03,11.74-18.53,16.33-28.53Zm-12.82,15.59c2.05-2.5,3.9-5.16,5.84-7.75,.43-.58,.88-1.14,1.64-1.52-.46,.93-.91,1.87-1.4,2.78-6.94,13.04-15.54,24.93-24.9,36.3-9.3,11.3-19.75,21.52-29.87,32.05-10.48,10.9-20.51,22.2-28.22,35.29-9.64,16.35-16.36,33.83-19.47,52.61-2.94,17.73-.7,34.96,5.37,51.76,3,8.31,6.6,16.35,11.32,23.85,5.04,8.02,11.42,14.75,19.58,19.57,8.26,4.88,16.7,9.45,25.1,14.08,8.92,4.92,18,9.55,26.46,15.26,.97,.66,1.94,1.31,3.11,2.11-.36,.76-.61,1.27-.91,1.9-3.67-1.36-7.21-2.73-10.79-3.99-7.93-2.79-15.96-5.3-23.8-8.33-11.29-4.37-21.96-9.98-31.16-17.97-15.65-13.6-26.25-30.19-29.74-50.97-1.66-9.89-2.84-19.82-2.77-29.82,.15-20.51,4.16-40.26,12.49-59.1,6.44-14.57,15.26-27.56,25.45-39.71,11.43-13.63,24.12-26.01,37.12-38.1,10.34-9.62,20.56-19.36,29.54-30.31Zm-35.89,17.15c-6.32,5.26-12.79,10.38-18.07,16.73-2.99,3.6-5.7,7.46-8.26,11.39-1.25,1.91-1.87,4.23-3.13,7.2-1.84,1.75-4.38,4.15-6.92,6.56l-.42-.22c.6-1.6,1.12-3.23,1.81-4.79,3.96-9.04,9.9-16.64,17.27-23.09,7.07-6.18,14.43-12.03,21.53-18.18,4.21-3.64,8.15-7.59,12.21-11.41-4.65,5.95-10.23,10.99-16.03,15.81Zm-36.96,36.48c-.99,2.34-1.61,4.83-2.49,7.21-.4,1.07-.88,2.17-1.59,3.06-1.56,1.96-3.29,3.79-5.41,5.47,.3-1.79,.52-3.61,.91-5.38,2.64-12.22,8.95-22.33,18.24-30.5,5.06-4.46,10.51-8.5,15.96-12.5,8.78-6.45,17.32-13.17,24.87-21.06,.2-.21,.45-.36,.67-.54-3.92,5.21-8.72,9.52-13.66,13.69-6.96,5.88-14.06,11.6-20.86,17.66-7.17,6.4-12.86,13.99-16.62,22.9Zm50.24-60.98c3.17-2.46,6.06-5.26,9.09-7.91,.41-.36,.83-.69,1.62-.66-2.57,3.29-5.04,6.66-7.73,9.85-7.5,8.9-16.38,16.29-25.68,23.21-5.74,4.27-11.57,8.43-17.07,12.99-9.24,7.65-16.15,17.03-19.72,28.64-1.36,4.41-2.44,8.89-2.05,13.7-1.94,2.71-3.76,5.24-5.86,8.17-.43-2.54-.02-4.61,.36-6.65,2.59-13.82,8.4-26.22,16.65-37.55,6.64-9.13,14.8-16.69,23.75-23.47,8.9-6.75,17.82-13.47,26.65-20.32Zm-16.46,4.11c.11-.14,.33-.2,1.13-.66-1.73,4.63-3.23,8.48-7,11.21-7.3,5.28-14.45,10.79-20.68,17.35-13.1,13.79-22.25,29.72-25.85,48.56-.64,3.35-.73,6.81-1.14,10.21-.12,1-.47,1.98-1.2,2.88,.1-4.8,.1-9.6,.32-14.39,.13-2.92,.4-5.87,.92-8.75,1.79-9.91,6.67-18.31,13.02-25.95,4.9-5.9,10.52-11.07,16.24-16.14,8.58-7.61,16.96-15.41,24.24-24.32Zm-29.87,22.2c6.68-5.09,13.44-10.09,20.53-15.4-.25,1.41-1.08,1.96-1.72,2.55-5.8,5.41-11.6,10.83-17.46,16.18-6.3,5.76-12.38,11.72-17.36,18.71-5.56,7.8-9.26,16.36-10.2,25.94-.4,4.08-.34,8.22-.44,12.33-.1,4.32-.22,8.63-1.53,12.79-.46,1.47-1.1,2.88-1.66,4.31l-.68-.14c1.4-7.26,.39-14.48-.24-21.68-1.35-15.39,3.57-28.49,13.68-39.93,5.16-5.83,10.92-10.96,17.09-15.66Zm-20.38,15.12c-1.41,2.23-2.96,4.39-4.47,6.56-6.65,9.52-11.28,19.91-13.56,31.32-1.67,8.38-1.43,16.75-.08,25.14,.64,3.96,1.16,7.95,1.68,11.93,.11,.86,.18,1.81-.07,2.61-1.03,3.24-2.2,6.43-3.52,10.25-.41-1.38-.67-2.17-.88-2.97-1.52-5.97-3.23-11.91-4.51-17.93-2.75-12.96-.77-25.39,5.19-37.11,2.93-5.75,6.38-11.24,9.86-16.68,5.01-7.83,10.36-15.44,14.08-24.08-.22,4.02-1.61,7.63-3.72,10.97Zm-12.26,41.39c.22,2.93,.43,5.87,.63,8.8,.39,5.51-.07,10.96-1.23,16.36-.39,1.79-.71,3.58-1.06,5.38-.19,0-.39,0-.58,0-.11-.47-.26-.93-.33-1.4-.61-3.87-1.26-7.73-1.8-11.61-1.52-11.01-.1-21.69,3.73-32.08,.16-.43,.41-.83,.87-1.74,0,1.42,.1,2.26-.02,3.08-.61,4.4-.53,8.8-.2,13.21Zm-18.8-4.32c2.06-7.56,5.37-14.5,10.15-20.72,2.15-2.8,4.37-5.54,6.6-8.28,6.13-7.52,12.32-14.99,16.88-23.63-.7,3.54-2.01,6.8-3.75,9.85-2.61,4.6-5.39,9.1-8.15,13.61-3.93,6.43-8.1,12.73-11.81,19.29-3.45,6.08-5.6,12.71-6.69,19.65-1.2,7.65-.79,15.26,.89,22.78,.98,4.39,2.3,8.71,3.37,13.08,.7,2.85,1.2,5.74,1.83,8.61,.35,1.59,.12,3.09-.71,5-.29-.82-.46-1.28-.62-1.74-1.44-4.26-2.91-8.52-4.32-12.79-1.69-5.11-3.65-10.15-4.92-15.37-2.4-9.85-1.38-19.66,1.26-29.35Zm-9.74,7.97c.44,5.46,2.04,10.55,4.76,15.31,.43,.75,.88,1.57,.99,2.4,1.03,7.45,3.76,14.38,6.42,21.33,1.68,4.4,3.31,8.8,4.1,13.47,.67,3.93,.73,5.49-.01,8.06-.63-1.83-1.05-3.49-1.76-5.03-1.9-4.08-3.82-8.16-5.91-12.14-4.25-8.11-7.78-16.47-9.32-25.56-1.34-7.97-1.22-15.94,.17-23.93,.19,2.03,.39,4.06,.55,6.09Zm-5.44,33.96c-5.55-11.17-6.08-22.8-2.36-34.58,1.44-4.55,3.52-8.91,5.34-13.34,.24-.58,.67-1.07,1.26-2-.67,4.15-1.37,7.79-1.84,11.46-1.87,14.65,.19,28.72,6.58,42.07,1.86,3.89,3.89,7.69,5.88,11.51,2.17,4.19,4.07,8.48,5.02,13.13,.71,3.48,.79,6.97-.68,10.88-.04-.27-.04-.54-.12-.8-2.49-7.79-6.45-14.89-10.4-22-3-5.39-5.93-10.82-8.67-16.34Zm-10.53-7.65c2.14,7.1,6.14,13.03,11.19,18.39,9.44,9.99,15.5,21.77,18.13,35.27,.19,.96-.14,2.03-.27,3.52-.48-.74-.69-.96-.79-1.22-3.05-7.6-7.54-14.36-12.29-20.98-5.37-7.5-10.35-15.23-13.6-23.93-.85-2.28-1.55-4.64-2.2-6.99-.49-1.78-.8-3.61-.84-5.54,.23,.49,.52,.97,.67,1.48Zm-4.94-.56c.12-2.77,.4-5.53,.61-8.29h.54c.21,1.99,.38,4,.62,6,1.26,10.41,5.19,19.84,10.7,28.65,2.65,4.23,5.48,8.35,8.35,12.44,4.24,6.03,8.12,12.23,10.76,19.15,2.1,5.5,2.41,8.41,1.45,14.84-.15-.09-.38-.14-.44-.27-3.89-8.54-9.58-15.9-15.07-23.41-3.29-4.5-6.52-9.08-9.38-13.85-6.5-10.83-8.7-22.75-8.14-35.25Zm-5.58,9.86c.53-5.97,1.84-11.78,3.25-17.58,.13-.54,.36-1.05,1-1.49-.1,1.32-.18,2.64-.3,3.95-.71,7.94-.56,15.85,1.09,23.68,1.68,7.96,4.94,15.26,9.47,21.97,3.23,4.78,6.72,9.4,10.12,14.06,3.75,5.14,7.5,10.29,10.31,16.03,.82,1.67,1.46,3.42,2.29,5.08,1.94,3.89,2.14,8.07,1.8,12.48-.22-.4-.48-.78-.66-1.2-5.46-12.81-13.02-24.29-21.95-34.93-2.77-3.3-5.34-6.76-7.93-10.2-7.14-9.46-9.53-20.19-8.5-31.85Zm-6,22.39c.07,.03,.18,.05,.22,.1,4.2,6.64,9.76,11.91,16.26,16.28,1.27,.85,2.37,2.04,3.34,3.24,5.05,6.23,10.17,12.42,14.29,19.34,.39,.66,.76,1.34,.93,2.26-.47-.39-.93-.78-1.4-1.18-3.86-3.31-7.67-6.67-11.58-9.93-9.5-7.91-16.53-17.67-21.78-28.79-.17-.35-.3-.72-.42-1.09-.02-.06,.09-.16,.14-.24Zm-2.76-.59c4.51,10.34,10.46,19.74,18.57,27.65,3.01,2.94,6.23,5.7,9.57,8.25,9.05,6.89,15.51,15.7,19.92,26.11,.07,.16,.03,.37,.11,1.37-4.56-5.64-9.5-10.09-14.76-14.21-3.01-2.36-6.07-4.65-8.99-7.11-8.4-7.07-15.67-15.08-20.45-25.11-3.94-8.28-6.18-17.06-7.7-26.07,1.24,3.04,2.42,6.12,3.73,9.13Zm-5.19,8.63c-1.1-6.29-1.37-12.64-1.29-19.06,.2,.73,.45,1.44,.59,2.18,1.34,6.83,3.09,13.55,5.51,20.08,4.32,11.67,11.56,21.31,20.89,29.38,4.96,4.29,10.18,8.28,15.28,12.41,5.21,4.22,9.55,9.27,13.65,14.53,.24,.3,.43,.65,.58,1.01,.14,.35,.19,.74,.38,1.55-.57-.34-.88-.46-1.09-.67-4.29-4.34-9.2-7.91-14.25-11.3-6.58-4.42-13.23-8.74-19.41-13.75-11.68-9.45-18.29-21.72-20.84-36.37Zm5.87,29.73c3.96,3.87,8.46,6.92,13.6,9.03,1.52,.62,2.95,1.51,4.31,2.43,5.75,3.89,11.45,7.87,17.19,11.77,5.2,3.53,10.03,7.49,14.34,12.08,1.04,1.1,1.85,2.24,1.74,4.14-.64-.47-1.11-.87-1.64-1.19-5.15-3.19-10.23-6.49-15.48-9.51-6.78-3.9-13.74-7.48-19.96-12.3-7.18-5.57-13.26-12.14-17.91-20.06,1.26,1.21,2.54,2.4,3.79,3.62Zm-12.04-13.61c.37,.66,.79,1.31,1.12,2,7.77,16.03,19.54,28.27,35.03,36.98,5.98,3.36,12,6.64,17.89,10.15,2.85,1.7,5.38,3.91,8.15,5.75,3.24,2.15,3.87,5.63,5.12,8.94-.39,.02-.59,.1-.72,.03-6.8-3.24-13.59-6.5-20.39-9.74-6.55-3.13-12.92-6.56-18.89-10.72-10.51-7.34-18.13-16.96-22.8-28.87-1.64-4.19-3-8.49-4.46-12.75-.18-.53-.24-1.1-.36-1.66l.31-.11Zm23,52.42c-9.85-6.21-16.28-15.09-20.39-25.83-3-7.82-4.68-15.96-5.86-24.22-.26-1.83-.44-3.67-.66-5.5l.38-.08c.27,.89,.52,1.79,.82,2.67,1.98,5.74,3.74,11.56,6,17.18,4.7,11.68,12.47,20.96,22.74,28.21,7.4,5.22,15.42,9.28,23.65,12.98,2.94,1.33,5.91,2.6,8.81,4.02,2.63,1.29,5.24,2.67,7.75,4.17,3.51,2.09,5.33,4.58,6.9,8.93-.17,0-.37,.06-.51,0-9.73-4.85-19.97-8.5-30.03-12.56-6.82-2.75-13.37-6.04-19.6-9.97Zm-30.56-20.3c.63,.92,1.26,1.85,1.89,2.77,4.23,6.15,8.77,12.03,14.61,16.78,6.82,5.55,14.57,8.65,23.38,9.08,.96,.05,1.96,.2,2.84,.55,8.71,3.5,17.43,6.96,26.07,10.63,4.76,2.02,9.37,4.42,14.04,6.66,1.05,.51,2.06,1.1,2.35,2.63-.74-.21-1.38-.34-1.99-.56-6.99-2.61-14.26-4.06-21.58-5.34-7.99-1.4-15.89-3.14-23.59-5.76-11.47-3.92-20.78-10.74-28.19-20.27-3.8-4.89-6.97-10.17-9.76-15.69-.2-.4-.33-.84-.09-1.48Zm-3.14-.31c.63,1.17,1.07,1.94,1.47,2.73,3.21,6.3,6.91,12.29,11.41,17.76,8.16,9.9,18.49,16.44,30.72,20.15,7.77,2.36,15.72,3.93,23.71,5.32,7.14,1.25,14.17,2.88,20.84,5.78,.95,.41,1.88,.9,2.81,1.36l-.17,.45c-1.11-.26-2.24-.48-3.33-.8-8.81-2.58-17.65-5.07-26.72-6.55-5.2-.85-10.45-1.44-15.68-2.07-15.56-1.87-28.51-8.02-36.7-22.13-3.82-6.57-6.43-13.61-8.51-20.87-.05-.17,.04-.38,.15-1.13Zm16.52,39.45c-6.46-5.4-10.71-12.39-13.66-20.19-1.24-3.27-2.18-6.65-3.25-9.98l.5-.31c1.26,2.96,2.42,5.96,3.8,8.86,3.62,7.62,8.48,14.28,15.44,19.23,3.61,2.57,7.57,4.45,11.72,5.95,.55,.2,1.09,.41,1.74,.65-8.59,1-9.87,1.16-16.29-4.21Zm-19.41-4.66c.87,.68,1.6,1.24,2.32,1.81,5.45,4.29,11.36,7.71,18.27,8.96,2.39,.43,4.86,.46,7.3,.48,3.72,.03,7.45-.07,11.17-.16,11.04-.27,21.83,1.54,32.56,3.88,2.19,.48,4.35,1.07,6.52,1.61v.36c-1.75-.21-3.48-.4-5.21-.64-6.54-.88-13.07-.66-19.62-.07-7.61,.69-15.26,1.35-22.88,.64-10.49-.98-19.54-5.37-27.16-12.65-1.13-1.08-2.19-2.25-3.26-3.39-.09-.09-.01-.33-.01-.83Zm-5.68-3.13c.8,1.04,1.59,2.09,2.41,3.11,6.76,8.38,15.11,14.41,25.57,17.36,6.03,1.7,12.19,1.82,18.35,1.56,5.37-.22,10.73-.78,16.1-1.12,8.35-.53,16.61,0,24.78,1.95,5.31,1.27,10.65,2.37,16.2,3.6-1.24,0-2.29,.07-3.31-.01-3.8-.32-7.59-.71-11.38-1.06-3.5-.32-7.01-.63-10.51-.94-.39-.03-.78-.11-1.17-.09-5.17,.27-10.36,.45-15.52,.85-11.96,.94-23.83,1.09-35.41-2.74-11.18-3.7-19.69-10.66-25.67-20.77-.28-.47-.52-.97-.78-1.45,.11-.08,.23-.16,.34-.24Zm37.07,29.5c-4.88-.94-9.81-1.83-14.56-3.26-14.78-4.45-24.29-14.45-29.43-28.82-1.31-3.67-2.38-7.41-2.59-11.41,.43,.94,.82,1.89,1.29,2.81,2.32,4.63,4.47,9.37,7.03,13.86,6.82,11.95,17.2,19.33,30.42,22.69,4.05,1.03,8.26,1.48,12.42,1.92,3.49,.37,7.03,.42,10.54,.43,2.14,.01,4.27-.31,6.5-.13-3.45,1.2-6.91,2.41-10.3,3.59-3.81-.56-7.6-.97-11.33-1.69Zm-12.27,7.9c6.54,.8,12.85-.26,19.03-2.37,5.55-1.89,11.01-4.08,16.64-5.66,7.47-2.1,15.17-3,22.94-2.53,6.34,.39,12.65,1.09,19.22,1.67-4.18,.69-8.16,1.13-12.03,2.04-4.94,1.17-9.78,2.74-14.67,4.09-8.87,2.44-17.8,4.4-27.02,5.11-8.78,.67-17.36-.08-25.89-2.04-.09-.02-.16-.1-.7-.45,1.12,.05,1.81,.04,2.48,.12Zm-16.76-2.58c7.24,3.06,14.7,5.37,22.51,6.35,6.32,.79,12.66,.97,19.05,.52,12.8-.91,24.94-4.65,37.15-8.2,2.39-.7,4.77-1.6,7.47-1.5-.24,.26-.34,.46-.49,.52-8.56,3.34-17.05,6.86-25.71,9.93-9.05,3.22-18.52,4.18-28.07,3.47-12.01-.9-23.07-4.9-33.25-11.45,.45,.11,.93,.17,1.36,.35Zm47.52,17.45c-4.41,.91-8.87,1.46-13.4,1.45-7.57-.01-14.74-1.79-21.57-4.91-8.85-4.04-16.47-9.8-23.13-16.87-.19-.2-.31-.47-.26-1,.59,.41,1.17,.82,1.76,1.23,9.48,6.61,19.66,11.71,31.03,14.2,7.92,1.74,15.89,1.9,23.94,1.07,8.16-.84,15.87-3.27,23.47-6.18,.82-.31,1.64-.63,2.46-.94,.07-.03,.18,.04,.85,.19-2.12,1.28-3.87,2.32-5.62,3.38-2.34,1.43-4.59,3.01-7.01,4.28-3.93,2.05-8.2,3.19-12.51,4.08Zm-12.52,18.3c7.91-3.41,14.99-8.07,21.23-14.01,4.68-4.46,9.29-9.01,14.69-12.64,8.36-5.61,17.31-9.92,27.15-12.21,1.52-.35,3.07-.59,4.86-.92,1.19,.85,2.27,1.63,3.75,2.7-5.7,.85-10.67,2.42-15.44,4.66-5.61,2.64-10.74,6.05-15.71,9.72-5.6,4.13-11.14,8.33-16.86,12.29-7.45,5.15-15.52,9.11-24.31,11.47-.45,.12-.92,.19-1.5-.03,.71-.34,1.41-.71,2.14-1.02Zm31.92-13.77c4-2.99,7.96-6.04,12-8.98,6.36-4.64,13.17-8.4,20.69-10.9,4.18-1.39,8.23-1.14,12.36-.16,.35,.08,.64,.41,1.16,.77-.54,.29-.91,.64-1.3,.67-6.98,.59-13.29,3.2-19.27,6.61-4.5,2.57-8.85,5.42-13.18,8.26-7.04,4.61-14.02,9.31-21.53,13.18-8.68,4.47-17.84,7.42-27.44,9.07-.66,.11-1.35,.08-2.02,.12,14.45-2.94,26.9-9.94,38.54-18.63Zm2.49,10.91c-7.5,6.17-15.89,10.74-25.52,12.7-6.45,1.31-12.94,2.02-19.53,1.05-4.64-.69-9.29-1.25-13.93-1.9-.94-.13-1.86-.44-2.77-1.04,.7,0,1.4-.02,2.09,0,21.05,.72,40.53-4.42,58.29-15.8,5.69-3.65,11.32-7.39,16.98-11.09,5.59-3.64,11.26-7.14,17.61-9.31,2.4-.82,4.88-1.42,7.35-2,.93-.22,1.93-.12,3.14-.17-5.07,1.8-9.99,3.37-14.77,5.3-5.68,2.3-10.69,5.74-15.22,9.85-4.57,4.15-8.96,8.5-13.72,12.41Zm-27.12,40.25c5.83-2.42,11.16-5.65,15.96-9.77,4.49-3.85,7.7-8.56,9.83-14.05,.88-2.28,1.79-4.55,2.69-6.83,6.89-17.46,19.62-28.39,37.51-33.53,4.15-1.19,8.34-2.09,13.15-1.93,.81,.4,1.76,.87,3.23,1.6-2.19,.3-3.84,.58-5.51,.74-12.07,1.13-21.94,6.31-28.96,16.27-3.26,4.63-5.95,9.66-8.83,14.55-1.94,3.29-3.71,6.67-5.62,9.98-5.91,10.27-14.5,17.35-25.64,21.31-3.38,1.21-6.83,2.25-10.45,2.86,.87-.4,1.74-.84,2.62-1.2Zm-7.87,5.18c5.79-1.78,11.24-3.29,16.57-5.14,11.57-4.02,20.38-11.47,26.48-22.07,3.03-5.26,5.77-10.68,8.9-15.88,2.36-3.93,4.88-7.83,7.77-11.38,5.4-6.64,12.65-10.35,20.98-11.96,2-.39,4.04-.56,6.18-.34-.83,.26-1.65,.57-2.5,.78-11.01,2.8-19.38,9.13-25.04,18.94-2.89,5-5.49,10.16-8.25,15.23-2.92,5.35-6.3,10.38-10.5,14.82-6.93,7.32-15.53,11.79-25.09,14.53-4.41,1.27-8.91,2.21-13.52,2.47-.58,.03-1.16,0-1.99,0Zm37.32-5.9c-5.12,3.42-10.78,5.56-16.74,6.84-5.66,1.21-11.42,1.65-17.21,1.24,4.46-.99,8.98-1.77,13.36-3,14.95-4.21,26.34-13.12,34.07-26.58,2.88-5.01,5.5-10.17,8.25-15.25,2.39-4.41,5.14-8.57,8.73-12.12,5.33-5.27,11.88-8.23,19.07-9.82,3.71-.82,7.52-1.19,11.29-1.67,.6-.08,1.27,.34,1.91,.53,0,.19,0,.39,0,.58-1.4,.33-2.8,.63-4.19,1-10.16,2.67-19.7,6.66-27.48,13.92-7.99,7.46-14.16,16.24-17.72,26.66-2.52,7.39-6.85,13.33-13.35,17.67Zm.44,23.37c6.89-8.05,10.5-17.55,12.27-27.86,.41-2.41,.69-4.85,1.22-7.23,.58-2.57,1.13-5.2,2.15-7.6,7.82-18.5,20.98-31.1,40.62-36.43,.18-.05,.38,0,1.1,0-.91,.49-1.38,.77-1.87,.99-.53,.24-1.09,.43-1.63,.65-11.27,4.55-20.1,11.98-26.37,22.41-3.36,5.59-5.26,11.76-7.11,17.96-1.7,5.71-3.33,11.47-5.48,17.02-2.93,7.57-7.54,14.14-13.34,19.84-.55,.54-1.15,1.02-1.73,1.54-.14-.13-.28-.25-.41-.38,.19-.3,.35-.63,.58-.9Zm-2.17,5.61c11.16-8.81,18.22-20.29,22.1-33.86,1.24-4.33,2.45-8.66,3.75-12.97,5.5-18.26,17.46-30.19,35.47-36.19,1.94-.65,3.92-1.19,5.89-1.76,.15-.04,.36,.09,.74,.2-1.2,.53-2.25,1-3.32,1.45-10.29,4.32-17.64,11.74-22.82,21.51-3.41,6.43-5.74,13.28-8.03,20.15-.56,1.67-1.14,3.33-1.66,5.01-4.72,14.96-14.13,26.2-27.27,34.51-1.65,1.05-3.36,2.01-5.05,3-.23,.13-.5,.18-1.35,.47,.8-.79,1.14-1.19,1.55-1.51Zm39.6-36.16c-4.19,12.44-11.63,22.54-22.22,30.32-6.18,4.54-12.77,8.34-19.93,11.12-.34,.13-.69,.25-1.04,.38l-.16-.33c2.96-1.72,5.96-3.36,8.87-5.16,10.54-6.52,19.24-14.87,24.73-26.1,2.31-4.73,4-9.77,5.74-14.75,2.1-6.01,3.99-12.08,6.84-17.8,3.13-6.28,6.93-12.06,12.42-16.56,3.91-3.2,8.34-5.45,13-7.31,.24-.1,.56-.01,1.24-.01-1.01,.67-1.69,1.16-2.41,1.6-11.2,6.85-18.54,16.65-22.33,29.17-1.56,5.15-3.02,10.34-4.74,15.44Zm1.79,12.89c1.6-5.89,1.89-11.97,2.49-18.01,.06-.58-.06-1.2,.08-1.76,2.69-10.75,6.31-21.05,14.59-28.96,5.07-4.84,10.75-8.8,17.45-11.1,2.8-.96,3.97-.88,7.14,.4-.82,.38-1.51,.72-2.2,1.02-14.6,6.23-24.65,16.69-29.49,31.91-2.07,6.52-3.8,13.16-5.92,19.67-1.3,3.99-3.02,7.84-4.61,11.73-.35,.86-.91,1.64-1.73,2.3,.74-2.4,1.55-4.78,2.2-7.2Zm44.65-58.23c1.04-.36,1.86-.35,2.62,.47-2.15,.97-4.32,1.86-6.42,2.91-11.57,5.78-19.37,15.06-24.32,26.8-2.39,5.67-4.25,11.56-6.55,17.28-1.79,4.44-3.85,8.76-5.85,13.11-.48,1.05-1.2,1.99-1.88,3.1-.17-.4-.33-.61-.28-.72,3.65-8.06,5.72-16.62,8.23-25.05,1.03-3.46,2.15-6.92,3.54-10.25,5.88-14.14,16.71-22.78,30.92-27.65Zm-30.21,54.58c-3.68,7.99-9.3,14.46-16.4,19.64-.3,.22-.64,.38-.96,.57-.12-.12-.25-.24-.37-.36,.4-.53,.77-1.09,1.2-1.59,6.04-7.09,10.47-15.08,13.65-23.83,2.47-6.8,4.93-13.63,7.84-20.25,4.44-10.07,11.46-17.98,21.31-23.08,3.1-1.61,6.48-2.7,9.76-3.96,.59-.23,1.28-.17,2.1,.14-.34,.27-.65,.59-1.02,.8-14.58,8.09-24.58,20.05-30.39,35.65-2.05,5.5-4.27,10.95-6.73,16.27Zm48.03-48.67c-19.36,7.34-30.95,21.39-35.3,41.43-1.39,6.39-1.92,12.96-2.88,19.71-.54-2.04-1.09-3.95-1.56-5.88-1.89-7.7-1.56-15.24,.95-22.85,4.99-15.13,14.94-25.91,28.47-33.75,.59-.34,1.22-.62,1.86-.88,.81-.33,1.64-.62,2.49-.94,2.78,.75,5.29,1.42,8.23,2.21-1.05,.44-1.65,.71-2.26,.94Zm3.46-2.84c-14.84-3.86-29.73-7.59-44.12-12.97-10.97-4.1-21.28-9.51-30.54-16.72-13.47-10.48-21.95-24.31-26.45-40.65-2.43-8.83-3.59-17.87-3.85-27-.72-25.35,3-50.03,12.13-73.73,6.39-16.56,15.09-31.85,27.04-45.13,7.7-8.56,16.28-16.13,25.43-23.09,6.94-5.28,13.83-10.63,20.74-15.94,.27-.21,.58-.37,1.22-.12-2.39,2.23-4.77,4.47-7.16,6.69-14.15,13.18-27.52,27.08-39.29,42.46-15.36,20.07-25.19,42.54-29.18,67.52-1.81,11.36-2.36,22.78-1.45,34.28,.64,8.12,1.65,16.17,3.32,24.14,3.06,14.59,10.38,26.94,20.02,38.07,9.49,10.96,21.36,18.58,34.38,24.62,8,3.71,16.32,6.53,24.7,9.23,5.47,1.76,10.86,3.81,16.63,5.85-.39,1.25-.63,2.06-.93,3.04-.97-.19-1.81-.32-2.63-.53Zm37.54,63.75c-4.85-3.98-9.89-7.75-14.48-12-9.74-9.03-16.35-20-18.88-33.15-2.77-14.43,1.52-26.51,12.64-36.12,5.87-5.08,12.36-9.32,18.94-13.4,1.33-.82,2.67-1.63,4-2.44l.17,.18c-3.95,3.79-8.08,7.41-11.8,11.41-6.5,6.98-11.41,14.93-13.51,24.39-2.34,10.52-1.23,20.64,3.43,30.36,3.62,7.55,8.41,14.37,13.31,21.11,2.53,3.49,5.17,6.9,7.62,10.6-.48-.31-.99-.58-1.43-.94Zm-103,157.13c-6.52-24.99,4.44-53.21,26.12-67.04,7.2-4.59,15.08-7.38,23.55-8.47,8.2-1.06,16.41-.76,24.63-.1,.68,.05,1.38,.14,2.05,.08,4.59-.35,9.19-.6,13.75-1.17,1.69-.21,3.39-1.02,4.9-1.87,13.54-7.69,22.23-19.23,26.57-34.08,1.92-6.56,1.65-13.23-.26-19.73-.76-2.59-2.16-5.05-3.58-7.37-2.92-4.76-5.94-9.47-9.12-14.05-4.02-5.79-8.35-11.37-12.35-17.17-3.22-4.67-6.34-9.44-9.19-14.35-4-6.89-6.22-14.34-6.21-22.4,.01-8.23,2.14-15.86,6.27-22.97,4.15-7.12,9.64-13.07,15.86-18.4,5.36-4.59,10.71-9.18,16.08-13.76,.19-.16,.46-.22,1.36-.61-1.55,1.72-2.63,2.94-3.73,4.13-5.8,6.25-12.04,12.09-17.23,18.9-3.64,4.77-6.96,9.73-9.27,15.29-4.45,10.69-4.57,21.52-.98,32.47,2.31,7.03,5.71,13.55,9.47,19.86,4.96,8.33,10.25,16.47,15.29,24.75,2.65,4.35,5.13,8.8,7.57,13.27,2.58,4.73,3.08,9.93,2.55,15.13-1.26,12.3-6.11,23.01-14.79,31.91-.34,.35-.69,.69-1.01,1.07-7.06,8.25-16.13,12.83-26.7,14.72-7.4,1.32-14.79,2.71-22.21,3.98-1.53,.26-3.13,.21-4.69,.15-9.55-.4-18.68,1.49-27.44,5.16-8.36,3.5-14.5,9.51-18.9,17.37-3.95,7.07-6.94,14.49-7.97,22.58-.75,5.88-.55,11.7,1.27,17.44,.61,1.93,.68,4.04,1.02,6.06,.5,2.96,1.02,5.92,1.38,8.92-1.87-3.01-3.13-6.25-4.02-9.67Zm51.15-66.25c-1.82,.63-3.65,1.23-5.46,1.89-12.89,4.7-23.93,12.05-32.37,22.98-5.34,6.92-9.08,14.63-10.55,23.32-.41,2.39-.59,4.82-.93,7.79-1.13-4.56-.89-8.6-.29-12.59,1.51-10.07,5.47-19.17,11.43-27.38,3.16-4.35,7.26-7.7,12.03-10.13,8.14-4.15,16.88-5.97,26.13-5.86Zm-44.26,40.01c4.57-11.81,12.44-20.95,22.81-28.04,7.67-5.24,16.12-8.74,25.11-11,.27-.07,.57,0,.92,0-2.19,3.67-4.35,7.25-6.47,10.86-1.24,2.11-2.44,4.24-3.61,6.39-3.36,6.14-8,11.1-13.85,14.91-3.77,2.46-7.62,4.78-11.45,7.15-4.26,2.64-8.48,5.36-11.42,9.53-1.57,2.22-2.78,4.69-4.14,7.05-.23,.39-.41,.81-.62,1.22-.46-6.28,.48-12.28,2.72-18.06Zm108.56-60.08c-7.94,9.24-17.87,15.39-29.48,19-4.57,1.42-9.11,2.99-13.55,4.76-6.21,2.48-11.41,6.41-15.56,11.7-2.72,3.47-5.47,6.91-8.3,10.3-4.64,5.58-10.36,9.83-16.72,13.24-2.24,1.2-4.51,2.35-6.77,3.53-6.8,3.54-11.51,9.01-14.6,15.94-2.26,5.07-3.37,10.42-3.85,15.92-.04,.45-.07,.9-.12,1.65-4.28-12.63-1.72-22.33,8.3-30.43,3.26-2.63,7-4.66,10.54-6.94,1.73-1.11,3.49-2.17,5.24-3.25,7.52-4.64,13.26-10.9,17.36-18.74,1.99-3.82,4.23-7.51,6.46-11.2,1.06-1.75,2.34-3.37,3.57-5.12,4.86-.82,9.69-1.53,14.48-2.47,5.46-1.07,10.93-2.16,16.31-3.57,6.55-1.72,12.26-5.05,17.16-9.79,5.38-5.2,10.25-10.78,14-17.31,2.96-5.17,5.04-10.6,5.79-16.52,.1-.78,.25-1.55,.41-2.32,.03-.17,.2-.31,.3-.45,1.45,12.43-3.06,22.84-10.98,32.06Zm-13.3,312.31c-1.54-2.25-3.05-4.53-4.64-6.75-6.67-9.31-14.9-17.13-23.59-24.49-8.94-7.57-16.85-16.05-23.84-25.47-5.74-7.74-9.1-16.38-10.99-25.69-1.48-7.31-.9-14.6,.53-21.87,2.57-13.08,7.62-25.05,15.62-35.74,.4-.53,.88-1.01,1.42-1.63,5.28,2.9,10.48,5.76,15.78,8.67-.35,1.04-.66,1.94-.93,2.73-7.96,4.98-13.6,11.93-18.52,19.56-3.37,5.22-6.02,10.78-7.46,16.84-2.14,8.98-1.04,17.69,2.47,26.16,3.42,8.22,8.8,15.01,15.44,20.81,3.61,3.16,7.38,6.13,11.2,9.04,4.86,3.69,9.15,7.96,13.31,12.39,6.64,7.06,10.74,15.57,14.32,24.4,.1,.26,.09,.56,.14,.84-.09,.07-.19,.15-.28,.23Zm-15.91-34.21c.53,1.26,1.02,2.53,1.51,3.81,.03,.07-.05,.18-.22,.68-7.59-8.56-15-16.91-20.01-27.03-4.67-9.44-6.21-19.54-5.83-29.96,.48-13.3,4.12-25.84,9.41-37.97,.15-.35,.39-.66,.83-1.38,.33,1.27,.49,2.19,.8,3.06,1.71,4.79,3.18,9.68,5.23,14.31,4.26,9.61,5.33,19.56,4.11,29.88-.44,3.69-.91,7.38-1.33,11.07-1.32,11.69,1,22.79,5.49,33.53Zm-18.9-18.77c2.77,4.82,6.3,9.2,9.48,13.78,.48,.68,.98,1.34,1.16,2.35-.43-.28-.88-.54-1.3-.86-5.94-4.49-11.87-8.99-17-14.43-8.05-8.54-13.07-18.49-14.03-30.31-.45-5.57,.65-10.93,2.56-16.12,2.98-8.1,7.68-15.18,13.36-21.61,1.62-1.83,3.41-3.51,5.2-5.18,.88-.83,1.92-1.49,2.89-2.23l.34,.3c-.43,1.06-.84,2.13-1.29,3.18-4.02,9.41-7.06,19.09-8.3,29.28-1.79,14.63-.57,28.82,6.93,41.84Zm26.06-52.82c-.99,9.04-2.77,18-2.92,27.13-.13,8.33,1.75,16.31,4.01,24.24,1.79,6.3,3.73,12.57,5.21,18.95,1.19,5.14,1.84,10.41,2.61,15.63,.72,4.84,1.29,9.7,1.89,14.56,.1,.82,.01,1.67,.01,2.51l-.32,.1c-.31-.68-.64-1.35-.93-2.03-2.59-6.05-5.89-11.69-9.33-17.29-5.32-8.65-8.98-18.02-11.03-27.99-1.44-6.99-1.25-13.99-.32-21.03,.63-4.75,1.21-9.52,1.43-14.3,.4-8.66-1.56-16.87-5.07-24.79-1.7-3.83-3.02-7.84-4.36-11.82-.56-1.65-.74-3.44-1.05-5.17-.31-1.72,.19-3.25,1.2-4.85,7.69,4.03,14.68,8.77,20.84,14.85-.64,3.79-1.46,7.52-1.87,11.3Zm25.67,95.44c.04-.93,.08-1.86,.13-2.79,.32-6.45,.48-12.92,.99-19.36,.58-7.36,.06-14.68-.58-21.98-1.12-12.87-2.16-25.79-6.38-38.15-3.53-10.31-9.42-19.04-17.37-26.51-6.78-6.38-14.48-11.31-22.64-15.66-4.67-2.48-9.32-5-13.91-7.62-5.14-2.93-9.67-6.66-13.78-10.91-6.4-6.62-9.84-14.65-10.54-23.69-1.97-25.51,6.1-47.84,22.11-67.5,6.17-7.57,13.62-13.8,21.26-19.8,8.94-7.02,17.94-13.96,26.94-20.9,11.26-8.69,19.37-19.59,23.34-33.36,1.7-5.89,2.3-11.91,1.78-18.03-.05-.58-.09-1.17-.12-1.76,0-.09,.06-.18,.17-.53,3.62,13.29,1.44,25.35-5.42,36.73-3.26,5.4-7.2,10.26-11.55,14.8-7.07,7.37-14.85,13.96-22.67,20.5-8.05,6.72-16.27,13.28-23.3,21.1-9.79,10.89-17.77,22.9-21.82,37.18-2.29,8.09-3.33,16.28-2.17,24.7,1.07,7.72,4.26,14.4,9.38,20.21,3.99,4.54,8.73,8.18,14.01,11.06,4.2,2.3,8.54,4.36,12.88,6.38,2.77,1.29,5.4,2.75,7.72,4.75,12.61,10.91,22.68,23.81,30.09,38.72,4,8.06,6.02,16.73,6.65,25.72,.34,4.8,1.24,9.45,2.7,14.08,1.29,4.07,1.94,8.4,2.44,12.66,.57,4.86,.85,9.79-.4,14.61-.54,2.07-1.31,4.09-2.07,6.1-2.32,6.13-4.68,12.24-7.04,18.36-.13,.34-.32,.66-.86,.89Zm17.04-40.37c2.39-9.4,2.72-18.99,2.36-28.61-.54-14.74-3.4-28.95-9.95-42.28-.64-1.3-1.46-2.56-2.42-3.64-2.95-3.33-6.47-5.92-10.42-8.01-8.49-4.51-17.46-7.86-26.46-11.14-.99-.36-1.96-.79-2.94-1.58,1.55-.22,3.1-.6,4.65-.62,5.39-.08,10.79-.27,16.16,.03,6.05,.35,12.03,1.41,17.71,3.67,14.08,5.59,22.35,16.02,25.33,30.75,2.03,10.05,1.42,20.09-.66,30.05-2.49,11.94-6.51,23.37-12.02,34.25-.84,1.66-1.83,3.24-2.77,4.84-.13,.22-.4,.35-.87,.74,.82-3.01,1.61-5.71,2.3-8.44Zm-4.91,9.48c-.28-4.02-.43-7.34-.75-10.65-.5-5.18-1.8-10.2-3.31-15.17-.76-2.51-1.38-5.13-1.53-7.74-.6-10.29-2.87-20.14-7.38-29.42-3.65-7.52-8.46-14.31-13.6-20.88-4.35-5.56-8.92-10.92-14.02-15.8-.25-.24-.45-.54-.67-.82l.2-.36c2.63,.98,5.26,1.93,7.88,2.93,6.76,2.61,13.32,5.65,19.58,9.32,4.7,2.76,8.17,6.48,10.36,11.59,3.79,8.79,6.33,17.87,7.55,27.36,1.26,9.76,1.6,19.52,.52,29.31-.75,6.73-2.33,13.27-4.83,20.32Zm-11.49-116.58c5.83,.29,11.05,2.48,15.87,5.59,10.84,7,17.27,17.1,20.44,29.45,3.77,14.71,2.98,29.34-.85,43.89-3.96,15.07-10.06,29.24-18.02,42.62-4.56,7.66-9.14,15.31-13.72,22.96-.15,.24-.37,.44-.56,.66l-.3-.09c.3-.99,.54-2,.92-2.96,2.35-5.92,4.8-11.79,7.07-17.74,1.02-2.67,2.26-5.12,4.01-7.43,3.16-4.15,5.34-8.89,7.36-13.68,4.65-11.05,8.3-22.39,9.87-34.33,1.35-10.23,1.1-20.38-2.33-30.19-4.91-14.05-15.05-22.56-29.19-26.49-8.38-2.33-16.98-2.7-25.61-2.36-3.9,.15-7.79,.59-12.01,.92-7.83-3.27-15.81-6.98-22.76-12.57-9.94-8-15.05-18.28-14.98-31.13,.07-12.49,3.63-24.05,9.96-34.61,6.36-10.62,14.02-20.3,23.53-28.39,8.89-7.55,17.76-15.12,26.57-22.77,6-5.22,11.69-10.77,16.5-17.13,2.41-3.19,4.64-6.57,6.63-10.04,6.01-10.5,7.41-21.75,4.95-33.53-1.49-7.14-3.77-14.04-7.27-20.41-4.1-7.45-8.44-14.79-13.01-21.97-5.95-9.34-11.84-18.71-16.92-28.56-2.66-5.16-4.86-10.49-6.12-16.17-2.46-11.01-.69-21.42,4.78-31.22,3.89-6.98,8.96-13.09,14.39-18.9,2.34-2.51,4.75-4.96,7.17-7.39,5.42-5.45,10.11-11.46,14.01-18.08,.35-.59,.7-1.18,1.07-1.76,.1-.16,.25-.29,.74-.82-.18,1-.24,1.58-.39,2.13-1.59,5.92-4.31,11.36-7.48,16.55-4.03,6.6-8.28,13.08-12.46,19.59-3.34,5.2-6.45,10.51-8.96,16.18-7.02,15.8-6.16,31.36,.93,46.91,6.2,13.58,13.92,26.31,21.17,39.32,6.65,11.94,10.92,24.69,11.55,38.48,.21,4.48-.74,8.76-2.31,12.93-4.13,10.94-10.41,20.6-17.73,29.64-6.93,8.56-14.9,16.1-22.95,23.58-6.17,5.73-12.47,11.4-18.06,17.67-9.47,10.63-15.87,23.04-18.77,37.07-1.17,5.68-1.53,11.48-.94,17.26,.62,6.09,3.24,11.24,7.96,15.24,5.66,4.81,12.36,7.43,19.48,9.12,6.6,1.56,13.32,2.07,20.08,2.31,5.58,.2,11.15,.39,16.73,.67Zm-13-38.39c.17,.56,.35,1.11,.61,1.94-.61,.64-1.22,1.38-1.92,2.01-7.58,6.82-14.95,13.85-21.85,21.37-1.92,2.09-3.75,4.26-5.75,6.54-.7-.21-1.44-.39-2.15-.66-4.14-1.59-8.01-3.65-11.33-6.65-5.08-4.56-7.22-10.39-7.15-17.06,.1-9.7,2.17-19.05,5.63-28.08,2.84-7.41,7.52-13.73,12.39-19.87,5.25-6.63,11.64-12.17,17.89-17.83,8.8-7.96,17.37-16.14,24.88-25.38,7.28-8.95,13.27-18.67,17.74-29.31,.75-1.78,1.39-3.6,2.08-5.39,.64,5.69,.11,11.23-.81,16.74-2.22,13.26-6.89,25.69-12.98,37.61-3.65,7.15-7.57,14.16-11.29,21.28-3.42,6.53-6.2,13.3-7.35,20.66-1.17,7.48-.83,14.83,1.38,22.09Zm1.45,4.27c1.5,2.71,2.77,5,3.94,7.1-7.13,7.79-14.13,15.44-21.4,23.38-3.42,.02-7.01-1.04-11.08-2.23,8.69-10.51,18.38-19.42,28.55-28.25Zm-3.28,31.44c-3.74,.53-7.37-.34-11.69-.49,6.54-7.94,12.94-15.12,20.25-21.84,1.42,1.64,2.74,3.16,4.23,4.89-4.79,5.43-9.62,10.79-12.79,17.45Zm83.01,31.45l-.76,.03c-.19-1.03-.37-2.07-.58-3.1-2.45-12.09-9.26-20.62-20.92-24.85-5.59-2.03-11.39-3.5-17.12-5.13-9.54-2.72-18.33-6.82-25.73-13.58-3.78-3.46-7.14-7.28-9.81-11.67-6.68-11.01-7.8-22.79-4.78-35.12,1.36-5.56,3.68-10.74,6.33-15.78,3.74-7.11,7.62-14.15,11.29-21.29,5.3-10.32,9.42-21.09,12.02-32.42,3.3-14.41,3.12-28.77-.69-43.06-.15-.57-.3-1.14-.4-1.71-.03-.17,.08-.37,.19-.81,.38,.75,.72,1.3,.97,1.9,6.71,16.11,8.24,32.69,5.01,49.84-2.27,12.01-6.95,23.01-12.86,33.59-2.63,4.7-5.21,9.43-7.65,14.23-2.37,4.65-3.85,9.62-4.78,14.76-.35,1.92-.96,3.8-1.31,5.72-.29,1.63-.48,3.29-.53,4.95-.2,6.42,.74,12.69,2.74,18.8,3.06,9.31,9.12,15.8,18.18,19.56,5.81,2.41,11.88,3.86,18,5.14,5.54,1.16,11.11,2.23,16.59,3.61,8.01,2.02,12.83,7.64,15.63,15.07,.81,2.13,.85,4.62,.92,6.95,.13,4.79,.04,9.58,.04,14.37Zm-56.55-62.37c4.12,1.89,8.52,2.86,12.97,3.53,5.5,.84,11.04,1.48,16.53,2.38,6,.98,11.49,3.14,15.98,7.43,1.86,1.78,3.54,3.7,4.4,6.16,1.61,4.62,3.12,9.26,4.64,13.91,.2,.62,.15,1.31,.28,2.56-.76-.94-1.21-1.41-1.57-1.95-2.85-4.37-6.85-7.32-11.79-8.72-5.06-1.43-10.23-2.51-15.38-3.57-6.6-1.35-13.17-2.75-19.48-5.23-9.94-3.91-16.13-11.06-18.92-21.31-1.13-4.15-1.8-8.35-2.1-12.94,.37,1.03,.7,1.74,.89,2.49,1.9,7.41,6.81,12.16,13.56,15.25Zm-11.9-19.42c.41,.74,.84,1.48,1.24,2.23,3.79,7.01,9.72,10.45,17.64,10.69,5.43,.16,10.7-.88,15.94-2.05,3.86-.86,7.67-1.22,11.62-.46,3.54,.68,6.34,2.51,8.76,4.99,2.91,2.97,5.04,6.49,6.69,10.29,2.36,5.43,3.7,11.14,4.66,16.95,.1,.61,.01,1.26,.01,1.89l-.34,.08c-.45-1.16-.94-2.3-1.36-3.47-2.88-8.07-8.73-13.06-16.59-15.89-5-1.8-10.27-2.34-15.51-2.98-6.02-.74-12.02-1.53-17.78-3.54-4.04-1.41-7.64-3.54-10.52-6.75-3.03-3.37-4.55-7.35-4.47-11.98Zm39.76,1.79c10.61,.27,18.49,5.03,23.76,14.19,3.52,6.12,5.4,12.82,6.45,19.72,1.45,9.43,1.72,18.93,.92,28.44-.05,.58-.16,1.16-.34,2.42-.47-3.46-.89-6.23-1.22-9.02-.33-2.82-.61-5.64-.87-8.46-.86-9.32-2.55-18.44-6.99-26.81-1.05-1.98-2.37-3.83-3.68-5.65-3.45-4.78-8.34-6.83-14.06-7.41-4.88-.5-9.51,.73-14.22,1.6-5.11,.94-10.25,1.5-15.43,.32-3.35-.76-6.21-2.31-8.53-4.86-2.96-3.27-4.83-7.09-5.92-11.34-.58-2.27-.12-4.49,.26-6.69,1.12-6.53,3.41-12.66,6.57-18.47,2.43-4.48,4.94-8.91,7.4-13.37,3.79-6.88,7.08-14.02,9.26-21.56,3.14-10.89,4.59-22.04,3.75-33.42-.78-10.48-3.53-20.46-7.88-29.96-3.46-7.56-7.21-15.01-11.15-22.34-3.29-6.12-7.23-11.89-10.53-18-4.19-7.75-8.19-15.61-11.98-23.57-3.49-7.34-5.17-15.16-5.14-23.34,.03-7.2,1.96-13.92,4.73-20.47,2.45-5.8,5.71-11.15,9.1-16.43,4.34-6.76,8.71-13.51,12.87-20.37,3.41-5.63,6.22-11.57,7.62-18.06,.53-2.48,.77-5.02,1.15-7.63,5.75-4.85,6.28-5.8,8.4-15.26,.78,5.54,.27,10.75-.7,15.93-1.82,9.69-5.38,18.82-9.43,27.75-4.01,8.83-8.19,17.58-12.31,26.36-4.21,8.98-7.7,18.18-9.86,27.91-3.63,16.3-1.01,31.52,7.14,45.93,2.6,4.61,5.32,9.15,8.68,13.26,1.55,1.89,3.25,3.67,4.69,5.64,1.55,2.13,3.03,4.34,4.26,6.66,5.55,10.43,9.8,21.34,12.18,32.96,2.22,10.85,2.59,21.76,1.69,32.76-1.05,12.69-5.09,24.47-10.58,35.86-2.68,5.55-5.09,11.23-7.49,16.91-2.26,5.34-2.32,10.79-.75,16.38,1.9,6.76,8.13,10.25,13.23,10.96,4.98,.7,9.97,.42,14.96,.55Zm10.71-98.57c-4.35-11.33-10.72-21.56-17.46-31.57-1.85-2.74-3.76-5.43-5.65-8.15l.44-.38c7.84,8.51,15.05,17.52,21.14,27.4,2.94,4.77,5.46,9.74,7.38,15.01,2.85,7.78,4.72,15.76,4.76,24.09,.04,8.06-1.6,15.76-4.85,23.12-5.03,11.42-12.07,21.53-20.6,30.58-4.3,4.56-9.02,8.71-13.57,13.03-.55,.52-1.22,.92-2.06,1.54-1.2-.89-2.33-1.73-3.71-2.76,1.08-1.16,1.93-2.08,2.79-2.98,5.68-5.96,11.51-11.79,17.01-17.91,11.25-12.51,17.47-27.28,18.92-44.02,.81-9.37-1.22-18.31-4.55-27.01Zm-5.82-8.28c3.57,7.12,6.39,14.52,7.78,22.41,1.73,9.88,.67,19.5-2.6,28.94-3.88,11.2-10.02,21.03-18,29.7-4.51,4.9-9.31,9.54-14,14.28-.82,.83-1.72,1.58-2.78,2.55-1.98-3.67-2.75-7.3-2.31-11.21,.45-3.92,1.42-7.72,3.04-11.31,2.33-5.18,4.78-10.31,7.19-15.45,4.17-8.92,7.29-18.17,8.71-27.95,1.06-7.3,1.34-14.64,1.02-21.99-.68-15.69-4.69-30.52-11.53-44.62-.3-.61-.55-1.25-.81-1.88-.03-.06,.05-.17,.15-.48,.48,.54,.93,.96,1.29,1.45,8.42,11.34,16.5,22.9,22.84,35.57Zm7.36-11.44c2.18,2.86,3.87,6.12,5.54,9.32,4.05,7.76,7.25,15.85,9.05,24.44,3.04,14.51,1.2,28.43-4.99,41.85-5.02,10.89-11.94,20.45-20.06,29.19-3.33,3.58-6.81,7.04-10.22,10.55-.34,.34-.74,.62-1.13,.94-2.45-.28-4.86-.55-7.44-.84,.36-1.45,1.34-1.98,2.09-2.65,6.81-6.08,13.33-12.43,18.94-19.67,4.27-5.51,8.09-11.3,11.41-17.44,8.36-15.47,9.74-31.58,4.82-48.37-2.84-9.7-7.42-18.52-13.11-26.81-6.45-9.4-13.77-18.1-21.68-26.28-3.6-3.73-7.67-7.01-11.25-10.76-7.84-8.22-14.62-17.19-18-28.23-2.68-8.76-4.29-17.72-3.4-26.95,.76-7.85,2.67-15.47,5.68-22.73,3.41-8.23,7.18-16.31,10.95-24.39,4.73-10.12,9.57-20.18,13.08-30.81,2.31-7.01,3.96-14.15,4.09-21.57,.06-3.48,.11-6.98-1.15-10.9,1.67,1.58,2.93,2.78,4.11,3.89,1.61,6.21,.41,12.21-.67,18.18-1.79,9.89-5.54,19.17-9.36,28.41-3.25,7.87-6.7,15.66-9.82,23.58-1.79,4.55-2.83,9.4-4.71,13.91-1.8,4.32-2.58,8.8-3.19,13.34-1.9,13.96-.81,27.58,5.06,40.58,.76,1.69,1.66,3.34,2.71,4.87,4.48,6.55,8.87,13.17,13.63,19.51,3.76,5,8.07,9.58,12.02,14.44,5.75,7.07,11.5,14.15,17.02,21.4Zm47.02,208.36c4.09-8.93,4.6-18.16,2.04-27.55-1.8-6.61-3.81-13.16-5.78-19.73-2.65-8.88-4.3-17.88-3.98-27.21,.31-8.97,2.41-17.5,6.44-25.44,3.94-7.77,8.33-15.31,12.6-22.91,2.08-3.69,3.86-7.45,4.68-11.66,1.1-5.68,.19-11.11-1.58-16.49-4.45-13.52-11.69-25.36-21.21-35.92-9.44-10.47-20.27-19.33-31.36-27.92-5.66-4.38-11.38-8.67-17.05-13.04-3.33-2.57-6.77-5.05-9.85-7.9-3.58-3.32-6.81-7-10.2-10.52l.46-.56c.38,.26,.78,.5,1.15,.77,12.42,9.25,24.88,18.45,37.23,27.78,11.68,8.82,22.7,18.39,32.41,29.39,11.68,13.22,20.82,27.9,26.05,44.91,1.71,5.55,1.85,10.92,.58,16.48-2.5,10.88-6.51,21.12-12.4,30.63-2.11,3.41-4.17,6.88-5.94,10.47-4.15,8.4-5.18,17.37-4.49,26.62,.58,7.76,2.71,15.21,4.42,22.75,1.06,4.67,1.8,9.41,2.55,14.15,.61,3.82,.17,7.63-.47,11.41-.83,4.85-2.81,9.11-6.68,12.43,.13-.31,.25-.63,.39-.94Zm27.8-128.72c.19,.15,.45,.25,.52,.43,3.55,8.91,7.1,17.83,9.25,27.22,5.47,23.85,1.64,46.29-10.21,67.51-4.03,7.22-8.88,13.85-14.66,19.78-.34,.35-.7,.67-1.31,1.25,13.76-37.84,20.21-76.23,16.4-116.2Zm-7.54,79.22c-2.18,10.16-4.95,20.15-8.6,29.89-1.03,2.74-2.23,5.41-3.35,8.12l-.54-.06c-.03-.28-.12-.57-.08-.84,1.3-8.21-.16-16.18-2.03-24.13-1.39-5.9-2.82-11.81-3.92-17.77-2.61-14.11-.05-27.24,7.85-39.31,5.45-8.32,9.77-17.19,12.41-26.82,.8-2.92,1.45-5.89,2.17-8.84,.11-.45,.27-.89,.63-2.03,.99,4.04,1.32,7.46,1.58,10.88,1.85,23.97-1.11,47.53-6.14,70.9Zm-106.33-252.36c.27,8.07,1.55,15.99,3.01,23.89,1.07,5.78,3.92,10.85,6.8,15.86,3.54,6.16,8.07,11.57,13.24,16.41,11.89,11.15,24.67,21.2,37.92,30.67,8.78,6.27,17.28,12.9,25.21,20.23,13.4,12.41,23.79,27,31.59,43.5,6.32,13.36,11.07,27.2,13.26,41.86,1.4,9.34,1.76,18.72,1.47,28.15-.34,11.14-2.05,22.03-5.57,32.62-4.58,13.79-12.05,25.88-21.66,36.7-6.52,7.35-13.51,14.2-21.35,20.15-.92,.7-1.87,1.35-3.05,1.79,.55-.61,1.07-1.25,1.65-1.83,4.46-4.46,8.29-9.4,11.51-14.83,.73-1.24,1.73-2.36,2.78-3.36,9.5-9.17,16.82-19.85,22.2-31.89,4.57-10.2,7.37-20.88,8.15-32.01,.6-8.53-.17-17.02-1.9-25.42-2-9.74-5.63-18.94-9.21-28.15-.99-2.55-2.2-5.02-3.26-7.55-.41-.99-.77-2.01-1.01-3.05-4.06-17.42-12.32-32.72-23.47-46.57-9.96-12.37-21.58-23.02-34.14-32.64-11.2-8.58-22.67-16.81-33.96-25.27-4.94-3.7-9.79-7.53-14.53-11.47-1.63-1.36-2.93-3.16-4.19-4.9-6.56-9.01-10.07-19.16-11.31-30.19-1.15-10.19-.01-20.12,2.82-29.94,2.5-8.67,5.33-17.2,8.84-25.52,3.96-9.38,7.88-18.77,11.58-28.25,2.93-7.51,4.64-15.37,5.44-23.41,.21-2.08,.21-4.18,.34-6.85,1.64,2.34,2.19,4.49,2.67,6.64,1.48,6.57,.77,13.05-.91,19.48-1.91,7.34-5.1,14.18-8.13,21.09-3.83,8.7-7.41,17.49-9.92,26.69-2.45,8.97-3.22,18.08-2.91,27.36Zm21.24-24.79c-6.18,1.49-12.08,4.01-17.02,8.28-.39,.34-.86,.59-1.63,1.1,.23-1.68,1.3-2.12,2.08-2.75,5.08-4.09,10.81-7.05,16.78-9.6,8.65-3.69,17.65-6.37,26.52-9.42,17.45-6.01,33.94-13.88,47.07-27.35,9.98-10.24,17.74-21.91,21.91-35.74,2.36-7.82,3.54-15.87,4.38-23.96,.84-8.1,1.15-16.22,.71-24.37-.96-17.58-4.68-34.49-11.57-50.73-6.62-15.59-15.91-29.42-26.77-42.31-11.21-13.3-23.5-25.52-36.3-37.26-1.37-1.26-2.72-2.54-4.06-3.83-.12-.11-.14-.32-.36-.86,10.8,8.38,21.36,16.35,31.67,24.64,23.89,19.21,39.51,44.01,48.46,73.14,5.56,18.1,8.21,36.7,8.35,55.62,.09,12-1.02,23.91-4.44,35.47-5.66,19.11-16.83,34.05-33.9,44.56-11.43,7.04-23.67,12.12-36.5,15.85-11.73,3.41-23.49,6.66-35.37,9.53Zm26.83-4.15c15.08,5.27,26.14,14.79,31.5,30.14,2.03,5.81,3.52,11.82,5.44,17.67,1.61,4.92,3.49,9.76,5.25,14.63,.15,.42,.28,.85,.42,1.28-.14,.06-.27,.13-.41,.19-.79-1.31-1.63-2.6-2.38-3.94-2.7-4.8-4.64-9.92-6.5-15.08-1.69-4.69-3.38-9.39-5.27-14.01-5.89-14.4-15.82-24.78-30.57-30.25-.18-.07-.35-.16-.54-.26,.91-1.16,1.95-.76,3.06-.37Zm21.69,59.99c-.52,2.08-1.01,4.17-1.9,6.29-.12-.46-.32-.91-.36-1.37-.53-7.14-1.25-14.25-3.17-21.17-5.1-18.32-16.41-31.06-34.23-37.9-.68-.26-1.34-.57-2.42-1.04,2.87-.78,5.28-1.43,8.21-2.22,1.37,.61,3.21,1.25,4.87,2.21,12.09,6.96,21.25,16.65,26.58,29.62,3.38,8.21,4.62,16.76,2.42,25.57Zm26.57,15.47c-.31-.19-.64-.36-.94-.56-8.86-6.14-15.23-14.29-19.32-24.23-1.98-4.79-3.89-9.62-5.77-14.45-5.69-14.63-15.45-25.71-29.09-33.42-.49-.28-.95-.61-1.42-.91,.06-.23,.12-.47,.18-.7,1.3,.32,2.63,.54,3.88,.97,12.01,4.11,21.11,11.7,27.24,22.83,2.99,5.42,5.15,11.19,7.22,17.01,1.11,3.13,2.24,6.27,3.4,9.38,3.02,8.07,7.47,15.28,13.07,21.8,.57,.66,1.13,1.34,1.54,2.29Zm-2.02-11c.16,.43,.32,.85,.08,1.47-.64-1.15-1.31-2.28-1.9-3.46-2.87-5.72-4.6-11.84-6.4-17.95-1.46-4.97-2.88-9.97-4.58-14.87-4.91-14.17-14.69-23.78-28.26-29.76-.71-.31-1.42-.63-2.13-.96-.08-.04-.15-.12-.46-.39,2.67-1.39,5.24-1.11,7.76-.07,12.4,5.13,21.68,13.57,26.87,26.08,1.68,4.05,3.06,8.29,4.05,12.56,.81,3.5,.91,7.18,1.21,10.79,.48,5.7,1.79,11.2,3.76,16.56Zm41.86,21.99c-.62-.2-1.26-.34-1.85-.6-9.7-4.2-18.49-9.77-25.99-17.29-7.36-7.39-12.11-16.28-15.22-26.13-1.32-4.2-2.5-8.44-3.77-12.65-4.02-13.39-12.13-23.52-24.32-30.37-.42-.24-.83-.5-1.25-.75,11.53,3.37,20.02,10.41,25.74,20.86,3.21,5.87,5.52,12.09,7.66,18.4,1.57,4.63,3,9.33,4.89,13.83,5.17,12.32,13.93,21.63,25.02,28.84,2.38,1.55,4.88,2.89,7.32,4.34,.64,.38,1.27,.8,1.76,1.52Zm-1.14-3.93c-15.83-8.01-27.49-19.69-33.17-36.74-2.32-6.96-4.71-13.91-7.46-20.72-2.88-7.14-6.98-13.57-12.72-18.85-3.42-3.15-7.34-5.52-11.53-7.49-.86-.4-1.71-.86-2.47-1.6,.46,.03,.94-.03,1.37,.11,10.14,3.14,19.43,7.69,26.76,15.69,5.68,6.2,9.52,13.37,11.93,21.35,1.5,4.97,2.85,9.98,4.36,14.94,4.01,13.11,11.19,24.08,22.07,32.54,.3,.23,.56,.51,.84,.77Zm-9.68-16.06c1.98,3.46,4.47,6.64,6.76,9.92,.47,.68,1.04,1.29,1.57,1.93-6.37-4.83-11.16-10.91-14.85-17.9-2.81-5.31-4.63-10.98-6.29-16.72-1.28-4.41-2.48-8.86-4.01-13.19-5.41-15.38-15.82-26.05-30.86-32.27-1.11-.46-2.23-.92-3.18-1.85,1.37,.43,2.75,.85,4.12,1.28,18.17,5.73,29.91,18.25,37.32,35.34,1.81,4.17,2.3,8.68,3.02,13.12,1.15,7.09,2.8,14.05,6.4,20.33Zm14.82-9.87c-8.48-3.36-15.38-8.54-19.44-16.97-.71-1.48-1.44-2.98-1.95-4.54-2.78-8.43-7.57-15.65-13.26-22.35-7.97-9.38-18.38-14.73-29.99-18.06-2.04-.58-4.11-1.05-6.74-1.71,1.02-.49,1.59-1.03,2.1-.97,6.7,.77,13.38,1.53,19.68,4.24,7.59,3.26,13.3,8.58,17.44,15.6,2.63,4.47,4.84,9.19,7.47,13.66,2.57,4.39,5.18,8.8,8.21,12.87,7.04,9.45,16.63,15.37,27.79,18.71,4.75,1.42,9.67,2.3,14.38,3.39-8.67,.43-17.35-.57-25.69-3.88Zm18.62,.42c-9.21-1.93-17.79-5.36-25.21-11.27-6.47-5.15-11.23-11.71-15.16-18.91-2.07-3.78-4.01-7.63-6.04-11.42-2.09-3.89-4.41-7.63-7.3-10.99-5.86-6.8-13.44-10.59-22.02-12.64-1.39-.33-2.8-.62-4.5-.99,14.19,.31,26,4.86,34.03,16.81,2.78,4.14,5.18,8.53,7.69,12.85,2.27,3.89,4.36,7.88,6.68,11.75,6.02,10.05,14.63,17.03,25.67,20.89,5.42,1.9,10.97,3.42,16.59,5.15-3.55,.25-6.99-.5-10.42-1.22Zm-27.68-38.57c1.46,2.98,2.75,6.07,3.85,9.2,2.79,7.97,7.69,14.3,14.7,18.89,3.58,2.35,7.47,4.25,11.22,6.34,.58,.32,1.2,.59,2.39,1.17-1.02,0-1.41,.08-1.74-.01-8.42-2.42-16.49-5.56-23.28-11.34-4.23-3.6-7.56-7.95-10.34-12.7-2.77-4.73-5.23-9.64-8.04-14.34-2.4-4.03-4.84-8.07-7.69-11.79-5.91-7.7-13.86-12.23-23.39-13.92-2.97-.53-5.98-.87-9.26-1.33,.55-.39,.94-.71,1.37-.96,.51-.28,1.06-.5,1.99-.92,14.18,1.09,26.98,6.24,37.64,16.3,4.61,4.35,7.83,9.76,10.59,15.41Zm65.67,5.5c-3.25,.66-5.98,1.35-8.76,1.73-4.06,.55-8.15,1.07-12.24,1.25-14.97,.64-28.37-3.77-40.13-13.02-3.69-2.9-7.33-5.93-10.57-9.3-9.39-9.77-20.73-15.86-33.88-18.78-.25-.06-.48-.2-1.06-.45,3.46-.34,6.35,.59,9.23,1.48,5.56,1.71,10.67,4.38,15.55,7.51,6.76,4.33,13.4,8.84,20.19,13.13,8.89,5.61,18.28,10.18,28.52,12.83,5.21,1.35,10.47,2.42,15.86,2.74,5.56,.33,11.13,.58,17.29,.89Zm-21.49-3.74c-.07,.19-.15,.39-.22,.58-3.61-.77-7.25-1.42-10.83-2.33-10.44-2.65-19.95-7.42-28.99-13.17-5.86-3.73-11.62-7.63-17.46-11.41-6.1-3.95-12.4-7.49-19.5-9.33-1.88-.49-3.82-.74-5.73-1.13-.63-.13-1.24-.36-1.88-1.09,.99-.23,2.01-.39,2.98-.71,3.72-1.23,7.28-.51,10.88,.64,7.86,2.49,14.79,6.66,21.36,11.49,4.1,3.02,8.14,6.13,12.23,9.16,10.88,8.07,22.64,14.31,36.04,17.06,.37,.08,.74,.15,1.12,.23Zm-26.63-17.4c5.99,5.46,12.74,9.75,20.18,12.97,.54,.23,1.08,.45,1.61,.71,.13,.06,.22,.24,.73,.83-2.9-.92-5.31-1.61-7.68-2.44-8.49-2.99-16.06-7.67-23.3-12.9-5.32-3.84-10.49-7.9-15.84-11.7-6.58-4.68-13.62-8.5-21.52-10.48-1.78-.45-3.59-.77-5.73-1.23,1.37-.98,2.53-1.81,3.74-2.67,14.52,2.52,27.2,8.73,38.34,18.14,3.29,2.78,6.3,5.89,9.49,8.79Zm66.32-27c-.48,.89-.55,1.16-.72,1.33-8.48,8.79-18.18,15.7-29.97,19.39-7.2,2.25-14.51,2.79-22,1.82-5.95-.77-11.78-1.94-17.23-4.42-4.85-2.21-9.21-5.31-13.59-8.45,13.76,5.75,27.95,8.82,42.87,7.25,14.94-1.58,28-7.91,40.65-16.93Zm-9.63,3.81c-.83,.57-1.37,1.01-1.97,1.35-8.05,4.58-16.58,7.92-25.74,9.39-6.2,.99-12.43,1.04-18.71,.43-9.66-.95-18.67-4.03-27.54-7.7-5.05-2.09-10.13-4.1-15.2-6.15,.02-.18,.04-.37,.06-.55,4.7,1.25,9.45,2.33,14.09,3.77,8.69,2.69,17.46,5.03,26.5,6.15,6.6,.82,13.22,1,19.9,.45,9.67-.8,18.82-3.3,27.67-7.12,.16-.07,.37,0,.94,0Zm-31.8,2.09c4.47,1.01,9.05,1.64,13.68,.82,.66-.12,1.35-.02,2.08,.31-3.04,.57-6.05,1.39-9.11,1.64-5.06,.42-10.18,.84-15.24,.6-10.09-.48-19.93-2.59-29.63-5.44-5.71-1.68-11.47-3.22-17.26-4.6-2.83-.67-5.78-.84-9.17-1.3,4.64-.46,8.8-.91,12.98-1.29,2.43-.22,4.87-.44,7.32-.51,11.4-.32,22.34,1.9,32.95,6.03,3.72,1.45,7.52,2.86,11.4,3.74Zm47.78-48.79c-1.08,5.09-2.56,10.04-4.78,14.76-5.71,12.13-15.05,20.04-27.83,23.92-5.99,1.82-12.15,2.88-18.35,3.69-2.32,.3-4.62,.68-6.98,1.03-3.44-1.18-6.94-2.38-10.96-3.77,1.61,0,2.69-.08,3.75,.01,9.84,.9,19.53,.05,28.99-2.81,12.71-3.83,22.23-11.71,28.58-23.31,2.86-5.22,5.34-10.65,8-16.01-.14,.79-.26,1.64-.44,2.47Z"/><path class="b" d="M260.13,232.06c.16-1.27,.25-1.99,.37-2.95,1.82,1.24,3.46,2.35,5.65,3.85-.36-1.5-.57-2.37-.8-3.33,1.29-1.74,4.6-1.23,5.07-4.3h-3.03c.38-.61,.67-1.01,.88-1.44,.19-.39,.3-.82,.55-1.54-1.37,.32-2.39,.56-3.35,.78-.35-.13-.66-.18-.89-.34-.4-.28-.75-.62-1.11-.92,.16-1.02,1.92-1.63,.66-3.09-1.61,1.28-3.42,1.44-5.29,1.52-1.65,.07-3.34,.24-4.92,.7-1.9,.55-3.98,1-5.41,3.29,5.18,.54,8.5,3.61,11.6,7.76Zm3.74-4.01c-4.22-.72-7.04-3.63-11.43-4.03,4.86-2.62,9.37-.94,11.43,4.03Z"/><circle class="b" cx="244.65" cy="173.39" r="1.75"/><circle class="b" cx="244.65" cy="180.29" r="1.75"/><circle class="b" cx="244.65" cy="186.84" r="1.75"/><circle class="b" cx="244.65" cy="193.86" r="1.75"/><circle class="b" cx="244.65" cy="795.1" r="1.75"/><circle class="b" cx="244.65" cy="801.99" r="1.75"/><circle class="b" cx="244.65" cy="808.54" r="1.75"/><circle class="b" cx="244.65" cy="815.57" r="1.75"/></svg>